<svg xmlns="http://www.w3.org/2000/svg" viewBox="0 0 810 462.487" width="810" height="462.487"><path fill="#fff" d="M0 0h810v462.487H0z"/><g stroke="#000" stroke-width="2"><path d="M25 42.32h380"/><path fill="none" d="M395 35.25l10 7.07-10 7.072"/></g><path stroke="#000" stroke-width="2" d="M364 32.32v20"/><g stroke="#000" stroke-width="2"><path d="M225 42.32l194.64 112.377"/><path fill="none" d="M414.516 143.573l5.125 11.124-12.196 1.123"/></g><path stroke="#000" stroke-width="2" d="M389.134 125.536l-10 17.32"/><g transform="rotate(30 11.567 672.26)"><circle cx="20" cy="20" fill="hsl(35.3375244140625, 60%, 80%)" stroke="#000" stroke-width="2" r="19"/><text font-family="Arial, Helvetica, sans-serif" font-size="18" dominant-baseline="middle" text-anchor="middle" transform="translate(20 20)">f</text></g><g transform="rotate(30 46.208 542.977)"><circle cx="20" cy="20" fill="hsl(252.61962890625, 60%, 80%)" stroke="#000" stroke-width="2" r="19"/><text font-family="Arial, Helvetica, sans-serif" font-size="18" dominant-baseline="middle" text-anchor="middle" transform="translate(20 20)">e</text></g><g><g stroke="#000" stroke-width="2"><path d="M125 42.32l214.64 123.924"/><path fill="none" d="M334.516 155.12l5.125 11.124-12.196 1.123"/></g><path stroke="#000" stroke-width="2" d="M309.134 137.083l-10 17.32"/><g transform="rotate(30 -26.886 442.563)"><circle cx="20" cy="20" fill="hsl(79.046630859375, 60%, 80%)" stroke="#000" stroke-width="2" r="19"/><text font-family="Arial, Helvetica, sans-serif" font-size="18" dominant-baseline="middle" text-anchor="middle" transform="translate(20 20)">d</text></g><g transform="rotate(30 -3.792 356.375)"><circle cx="20" cy="20" fill="hsl(31.66259765625, 60%, 80%)" stroke="#000" stroke-width="2" r="19"/><text font-family="Arial, Helvetica, sans-serif" font-size="18" dominant-baseline="middle" text-anchor="middle" transform="translate(20 20)">c</text></g></g><g><g stroke="#000" stroke-width="2"><path d="M45 42.32l394.64 227.847"/><path fill="none" d="M434.516 259.043l5.125 11.124-12.196 1.123"/></g><path stroke="#000" stroke-width="2" d="M409.134 241.006l-10 17.32"/><g transform="rotate(30 -136.168 551.845)"><circle cx="20" cy="20" fill="hsl(44.110107421875, 60%, 80%)" stroke="#000" stroke-width="2" r="19"/><text font-family="Arial, Helvetica, sans-serif" font-size="18" dominant-baseline="middle" text-anchor="middle" transform="translate(20 20)">b</text></g><g transform="rotate(30 -55.339 250.187)"><circle cx="20" cy="20" fill="hsl(320.9271240234375, 60%, 80%)" stroke="#000" stroke-width="2" r="19"/><text font-family="Arial, Helvetica, sans-serif" font-size="18" dominant-baseline="middle" text-anchor="middle" transform="translate(20 20)">a</text></g></g><g transform="translate(25 307.487)"><rect y="10" width="760" height="48" fill="#fff" stroke="#000" stroke-width="2" rx="0"/><text x="380" y="35" font-family="Arial, Helvetica, sans-serif" font-size="24" dominant-baseline="middle" text-anchor="middle">concatAll</text></g><g><g stroke="#000" stroke-width="2"><path d="M25 417.487h760"/><path fill="none" d="M775 410.416l10 7.071-10 7.071"/></g><path stroke="#000" stroke-width="2" d="M744 407.487v20"/><g transform="translate(685 397.487)"><circle cx="20" cy="20" fill="hsl(35.3375244140625, 60%, 80%)" stroke="#000" stroke-width="2" r="19"/><text font-family="Arial, Helvetica, sans-serif" font-size="18" dominant-baseline="middle" text-anchor="middle" transform="translate(20 20)">f</text></g><g transform="translate(625 397.487)"><circle cx="20" cy="20" fill="hsl(252.61962890625, 60%, 80%)" stroke="#000" stroke-width="2" r="19"/><text font-family="Arial, Helvetica, sans-serif" font-size="18" dominant-baseline="middle" text-anchor="middle" transform="translate(20 20)">e</text></g><g transform="translate(485 397.487)"><circle cx="20" cy="20" fill="hsl(79.046630859375, 60%, 80%)" stroke="#000" stroke-width="2" r="19"/><text font-family="Arial, Helvetica, sans-serif" font-size="18" dominant-baseline="middle" text-anchor="middle" transform="translate(20 20)">d</text></g><g transform="translate(445 397.487)"><circle cx="20" cy="20" fill="hsl(31.66259765625, 60%, 80%)" stroke="#000" stroke-width="2" r="19"/><text font-family="Arial, Helvetica, sans-serif" font-size="18" dominant-baseline="middle" text-anchor="middle" transform="translate(20 20)">c</text></g><g transform="translate(245 397.487)"><circle cx="20" cy="20" fill="hsl(44.110107421875, 60%, 80%)" stroke="#000" stroke-width="2" r="19"/><text font-family="Arial, Helvetica, sans-serif" font-size="18" dominant-baseline="middle" text-anchor="middle" transform="translate(20 20)">b</text></g><g transform="translate(105 397.487)"><circle cx="20" cy="20" fill="hsl(320.9271240234375, 60%, 80%)" stroke="#000" stroke-width="2" r="19"/><text font-family="Arial, Helvetica, sans-serif" font-size="18" dominant-baseline="middle" text-anchor="middle" transform="translate(20 20)">a</text></g></g></svg>