<svg xmlns="http://www.w3.org/2000/svg" width="810" height="462.487"><path fill="#fff" d="M0 0h810v462.487H0z"/><g role="list" aria-label="Stream" tabindex="0"><g stroke="#000" stroke-width="2"><path d="M25 42.32h370"/><path stroke-linecap="square" d="M395 36.547l10 5.774-10 5.773V36.547"/></g><path stroke="#000" stroke-width="2" d="M364 32.32v20" role="listitem" aria-label="Completion" tabindex="1"/><g role="list" aria-label="Stream" tabindex="2"><g stroke="#000" stroke-width="2"><path d="M225 42.32l185.98 107.377"/><path stroke-linecap="square" d="M413.868 144.697l5.773 10h-11.547l5.774-10"/></g><path stroke="#000" stroke-width="2" d="M389.134 125.536l-10 17.32" role="listitem" aria-label="Completion" tabindex="3"/><g role="listitem" aria-label="Message: f" tabindex="4" transform="rotate(30 11.567 672.26)"><circle cx="20" cy="20" fill="hsl(35, 60%, 80%)" stroke="#000" stroke-width="2" r="19"/><text font-family="Arial, Helvetica, sans-serif" font-size="18" dominant-baseline="middle" text-anchor="middle" transform="translate(20 20)">f</text></g><g role="listitem" aria-label="Message: e" tabindex="5" transform="rotate(30 46.208 542.977)"><circle cx="20" cy="20" fill="hsl(253, 60%, 80%)" stroke="#000" stroke-width="2" r="19"/><text font-family="Arial, Helvetica, sans-serif" font-size="18" dominant-baseline="middle" text-anchor="middle" transform="translate(20 20)">e</text></g></g><g role="list" aria-label="Stream" tabindex="6"><g stroke="#000" stroke-width="2"><path d="M125 42.32l205.98 118.924"/><path stroke-linecap="square" d="M333.868 156.244l5.773 10h-11.547l5.774-10"/></g><path stroke="#000" stroke-width="2" d="M309.134 137.083l-10 17.32" role="listitem" aria-label="Completion" tabindex="7"/><g role="listitem" aria-label="Message: d" tabindex="8" transform="rotate(30 -26.886 442.563)"><circle cx="20" cy="20" fill="hsl(79, 60%, 80%)" stroke="#000" stroke-width="2" r="19"/><text font-family="Arial, Helvetica, sans-serif" font-size="18" dominant-baseline="middle" text-anchor="middle" transform="translate(20 20)">d</text></g><g role="listitem" aria-label="Message: c" tabindex="9" transform="rotate(30 -3.792 356.375)"><circle cx="20" cy="20" fill="hsl(32, 60%, 80%)" stroke="#000" stroke-width="2" r="19"/><text font-family="Arial, Helvetica, sans-serif" font-size="18" dominant-baseline="middle" text-anchor="middle" transform="translate(20 20)">c</text></g></g><g role="list" aria-label="Stream" tabindex="10"><g stroke="#000" stroke-width="2"><path d="M45 42.32l385.98 222.847"/><path stroke-linecap="square" d="M433.868 260.167l5.773 10h-11.547l5.774-10"/></g><path stroke="#000" stroke-width="2" d="M409.134 241.006l-10 17.32" role="listitem" aria-label="Completion" tabindex="11"/><g role="listitem" aria-label="Message: b" tabindex="12" transform="rotate(30 -136.168 551.845)"><circle cx="20" cy="20" fill="hsl(44, 60%, 80%)" stroke="#000" stroke-width="2" r="19"/><text font-family="Arial, Helvetica, sans-serif" font-size="18" dominant-baseline="middle" text-anchor="middle" transform="translate(20 20)">b</text></g><g role="listitem" aria-label="Message: a" tabindex="13" transform="rotate(30 -55.339 250.187)"><circle cx="20" cy="20" fill="hsl(321, 60%, 80%)" stroke="#000" stroke-width="2" r="19"/><text font-family="Arial, Helvetica, sans-serif" font-size="18" dominant-baseline="middle" text-anchor="middle" transform="translate(20 20)">a</text></g></g></g><g aria-label="Operator: concatAll" tabindex="14" transform="translate(25 307.487)"><rect y="10" width="760" height="48" fill="#fff" stroke="#000" stroke-width="2" rx="0"/><text x="380" y="35" font-family="Arial, Helvetica, sans-serif" font-size="24" dominant-baseline="middle" text-anchor="middle">concatAll</text></g><g role="list" aria-label="Stream" tabindex="15"><g stroke="#000" stroke-width="2"><path d="M25 417.487h750"/><path stroke-linecap="square" d="M775 411.714l10 5.773-10 5.774v-11.547"/></g><path stroke="#000" stroke-width="2" d="M744 407.487v20" role="listitem" aria-label="Completion" tabindex="16"/><g role="listitem" aria-label="Message: f" tabindex="17" transform="translate(685 397.487)"><circle cx="20" cy="20" fill="hsl(35, 60%, 80%)" stroke="#000" stroke-width="2" r="19"/><text font-family="Arial, Helvetica, sans-serif" font-size="18" dominant-baseline="middle" text-anchor="middle" transform="translate(20 20)">f</text></g><g role="listitem" aria-label="Message: e" tabindex="18" transform="translate(625 397.487)"><circle cx="20" cy="20" fill="hsl(253, 60%, 80%)" stroke="#000" stroke-width="2" r="19"/><text font-family="Arial, Helvetica, sans-serif" font-size="18" dominant-baseline="middle" text-anchor="middle" transform="translate(20 20)">e</text></g><g role="listitem" aria-label="Message: d" tabindex="19" transform="translate(485 397.487)"><circle cx="20" cy="20" fill="hsl(79, 60%, 80%)" stroke="#000" stroke-width="2" r="19"/><text font-family="Arial, Helvetica, sans-serif" font-size="18" dominant-baseline="middle" text-anchor="middle" transform="translate(20 20)">d</text></g><g role="listitem" aria-label="Message: c" tabindex="20" transform="translate(445 397.487)"><circle cx="20" cy="20" fill="hsl(32, 60%, 80%)" stroke="#000" stroke-width="2" r="19"/><text font-family="Arial, Helvetica, sans-serif" font-size="18" dominant-baseline="middle" text-anchor="middle" transform="translate(20 20)">c</text></g><g role="listitem" aria-label="Message: b" tabindex="21" transform="translate(245 397.487)"><circle cx="20" cy="20" fill="hsl(44, 60%, 80%)" stroke="#000" stroke-width="2" r="19"/><text font-family="Arial, Helvetica, sans-serif" font-size="18" dominant-baseline="middle" text-anchor="middle" transform="translate(20 20)">b</text></g><g role="listitem" aria-label="Message: a" tabindex="22" transform="translate(105 397.487)"><circle cx="20" cy="20" fill="hsl(321, 60%, 80%)" stroke="#000" stroke-width="2" r="19"/><text font-family="Arial, Helvetica, sans-serif" font-size="18" dominant-baseline="middle" text-anchor="middle" transform="translate(20 20)">a</text></g></g></svg>