<svg xmlns="http://www.w3.org/2000/svg" viewBox="0 0 810 465.167" width="810" height="465.167"><path fill="#fff" d="M0 0h810v465.167H0z"/><g stroke="#000" stroke-width="2"><path d="M25 45h370"/><path stroke-linecap="square" d="M395 39.226 405 45l-10 5.774z"/></g><path stroke="#000" stroke-width="2" d="M364 35v20"/><g stroke="#000" stroke-width="2"><path d="m225 45 185.98 107.376"/><path stroke-linecap="square" d="m413.868 147.376 5.773 10h-11.547z"/></g><path stroke="#000" stroke-width="2" d="m389.134 128.216-10 17.32"/><g transform="rotate(30 6.567 673.6)"><circle cx="20" cy="20" fill="hsl(35, 60%, 80%)" stroke="#000" stroke-width="2" r="19"/><text font-family="Arial, Helvetica, sans-serif" font-size="18" dominant-baseline="middle" text-anchor="middle" transform="translate(20 20)">f</text></g><g transform="rotate(30 41.208 544.317)"><circle cx="20" cy="20" fill="hsl(253, 60%, 80%)" stroke="#000" stroke-width="2" r="19"/><text font-family="Arial, Helvetica, sans-serif" font-size="18" dominant-baseline="middle" text-anchor="middle" transform="translate(20 20)">e</text></g><g stroke="#000" stroke-width="2"><path d="m125 45 205.98 118.923"/><path stroke-linecap="square" d="m333.868 158.923 5.773 10h-11.547z"/></g><path stroke="#000" stroke-width="2" d="m309.134 139.763-10 17.32"/><g transform="rotate(30 -31.886 443.903)"><circle cx="20" cy="20" fill="hsl(79, 60%, 80%)" stroke="#000" stroke-width="2" r="19"/><text font-family="Arial, Helvetica, sans-serif" font-size="18" dominant-baseline="middle" text-anchor="middle" transform="translate(20 20)">d</text></g><g transform="rotate(30 -8.792 357.715)"><circle cx="20" cy="20" fill="hsl(32, 60%, 80%)" stroke="#000" stroke-width="2" r="19"/><text font-family="Arial, Helvetica, sans-serif" font-size="18" dominant-baseline="middle" text-anchor="middle" transform="translate(20 20)">c</text></g><g stroke="#000" stroke-width="2"><path d="m45 45 385.98 222.846"/><path stroke-linecap="square" d="m433.868 262.846 5.773 10h-11.547z"/></g><path stroke="#000" stroke-width="2" d="m409.134 243.686-10 17.32"/><g transform="rotate(30 -141.168 553.185)"><circle cx="20" cy="20" fill="hsl(44, 60%, 80%)" stroke="#000" stroke-width="2" r="19"/><text font-family="Arial, Helvetica, sans-serif" font-size="18" dominant-baseline="middle" text-anchor="middle" transform="translate(20 20)">b</text></g><g transform="rotate(30 -60.339 251.527)"><circle cx="20" cy="20" fill="hsl(321, 60%, 80%)" stroke="#000" stroke-width="2" r="19"/><text font-family="Arial, Helvetica, sans-serif" font-size="18" dominant-baseline="middle" text-anchor="middle" transform="translate(20 20)">a</text></g><g transform="translate(25 310.167)"><rect y="10" width="760" height="48" fill="#fff" stroke="#000" stroke-width="2" rx="0"/><text x="380" y="35" dominant-baseline="middle" text-anchor="middle" font-family="Arial, Helvetica, sans-serif" font-size="24">concatAll</text></g><g stroke="#000" stroke-width="2"><path d="M25 420.167h750"/><path stroke-linecap="square" d="m775 414.393 10 5.774-10 5.773z"/></g><path stroke="#000" stroke-width="2" d="M744 410.167v20"/><g transform="translate(685 400.167)"><circle cx="20" cy="20" fill="hsl(35, 60%, 80%)" stroke="#000" stroke-width="2" r="19"/><text font-family="Arial, Helvetica, sans-serif" font-size="18" dominant-baseline="middle" text-anchor="middle" transform="translate(20 20)">f</text></g><g transform="translate(625 400.167)"><circle cx="20" cy="20" fill="hsl(253, 60%, 80%)" stroke="#000" stroke-width="2" r="19"/><text font-family="Arial, Helvetica, sans-serif" font-size="18" dominant-baseline="middle" text-anchor="middle" transform="translate(20 20)">e</text></g><g transform="translate(485 400.167)"><circle cx="20" cy="20" fill="hsl(79, 60%, 80%)" stroke="#000" stroke-width="2" r="19"/><text font-family="Arial, Helvetica, sans-serif" font-size="18" dominant-baseline="middle" text-anchor="middle" transform="translate(20 20)">d</text></g><g transform="translate(445 400.167)"><circle cx="20" cy="20" fill="hsl(32, 60%, 80%)" stroke="#000" stroke-width="2" r="19"/><text font-family="Arial, Helvetica, sans-serif" font-size="18" dominant-baseline="middle" text-anchor="middle" transform="translate(20 20)">c</text></g><g transform="translate(245 400.167)"><circle cx="20" cy="20" fill="hsl(44, 60%, 80%)" stroke="#000" stroke-width="2" r="19"/><text font-family="Arial, Helvetica, sans-serif" font-size="18" dominant-baseline="middle" text-anchor="middle" transform="translate(20 20)">b</text></g><g transform="translate(105 400.167)"><circle cx="20" cy="20" fill="hsl(321, 60%, 80%)" stroke="#000" stroke-width="2" r="19"/><text font-family="Arial, Helvetica, sans-serif" font-size="18" dominant-baseline="middle" text-anchor="middle" transform="translate(20 20)">a</text></g></svg>