<svg xmlns="http://www.w3.org/2000/svg" width="890" height="359.03411844343526"><rect x="0" y="0" fill="white" width="890" height="359.03411844343526"/><g transform="translate(20 20)"><g transform="translate(0 -2.6794919243112254)"><text x="0" y="20" fill="black" font-family="sans-serif" font-size="18px" font-weight="bold" font-style="normal" dominant-baseline="middle">input</text><g transform="translate(100 0)"><g><line x1="0" y1="20" x2="370" y2="20" stroke="black" stroke-width="2"/><polyline points="360,12.928932188134524 370,20 360,27.071067811865476" stroke="black" stroke-width="2" fill="none"/></g><g transform="rotate(30 20 20) translate(20 0)"><g><line x1="0" y1="20" x2="448.7862045841155" y2="20" stroke="black" stroke-width="2"/><polyline points="438.7862045841155,12.928932188134524 448.7862045841155,20 438.7862045841155,27.071067811865476" stroke="black" stroke-width="2" fill="none"/></g><g transform="translate(72.37604307034012 0)"><ellipse cx="20" cy="20" rx="19" ry="19" fill="rgb(191,191,223)" stroke="black" stroke-width="2"/><text x="20" y="20" fill="black" font-family="sans-serif" font-size="18px" font-weight="bold" font-style="normal" dominant-baseline="middle" text-anchor="middle">a</text></g><g transform="translate(234.03411844343532 0)"><ellipse cx="20" cy="20" rx="19" ry="19" fill="rgb(191,191,223)" stroke="black" stroke-width="2"/><text x="20" y="20" fill="black" font-family="sans-serif" font-size="18px" font-weight="bold" font-style="normal" dominant-baseline="middle" text-anchor="middle">b</text></g><g transform="translate(414.69219381653056 0)"><line x1="0" y1="10" x2="0" y2="30" stroke="black" stroke-width="2"/></g></g><g transform="rotate(30 100 20) translate(100 0)"><g><line x1="0" y1="20" x2="240.9401076758503" y2="20" stroke="black" stroke-width="2"/><polyline points="230.9401076758503,12.928932188134524 240.9401076758503,20 230.9401076758503,27.071067811865476" stroke="black" stroke-width="2" fill="none"/></g><g transform="translate(49.282032302755084 0)"><ellipse cx="20" cy="20" rx="19" ry="19" fill="rgb(191,191,223)" stroke="black" stroke-width="2"/><text x="20" y="20" fill="black" font-family="sans-serif" font-size="18px" font-weight="bold" font-style="normal" dominant-baseline="middle" text-anchor="middle">c</text></g><g transform="translate(95.47005383792515 0)"><ellipse cx="20" cy="20" rx="19" ry="19" fill="rgb(191,191,223)" stroke="black" stroke-width="2"/><text x="20" y="20" fill="black" font-family="sans-serif" font-size="18px" font-weight="bold" font-style="normal" dominant-baseline="middle" text-anchor="middle">d</text></g><g transform="translate(206.84609690826528 0)"><line x1="0" y1="10" x2="0" y2="30" stroke="black" stroke-width="2"/></g></g><g transform="rotate(30 200 20) translate(200 0)"><g><line x1="0" y1="20" x2="217.84609690826528" y2="20" stroke="black" stroke-width="2"/><polyline points="207.84609690826528,12.928932188134524 217.84609690826528,20 207.84609690826528,27.071067811865476" stroke="black" stroke-width="2" fill="none"/></g><g transform="translate(49.282032302755084 0)"><ellipse cx="20" cy="20" rx="19" ry="19" fill="rgb(191,191,223)" stroke="black" stroke-width="2"/><text x="20" y="20" fill="black" font-family="sans-serif" font-size="18px" font-weight="bold" font-style="normal" dominant-baseline="middle" text-anchor="middle">e</text></g><g transform="translate(118.56406460551017 0)"><ellipse cx="20" cy="20" rx="19" ry="19" fill="rgb(191,191,223)" stroke="black" stroke-width="2"/><text x="20" y="20" fill="black" font-family="sans-serif" font-size="18px" font-weight="bold" font-style="normal" dominant-baseline="middle" text-anchor="middle">f</text></g><g transform="translate(183.75208614068023 0)"><line x1="0" y1="10" x2="0" y2="30" stroke="black" stroke-width="2"/></g></g><g transform="translate(339 0)"><line x1="0" y1="10" x2="0" y2="30" stroke="black" stroke-width="2"/></g></g></g><g transform="translate(0 279.03411844343526)"><text x="0" y="20" fill="black" font-family="sans-serif" font-size="18px" font-weight="bold" font-style="normal" dominant-baseline="middle">output</text><g transform="translate(100 0)"><g><line x1="0" y1="20" x2="750" y2="20" stroke="black" stroke-width="2"/><polyline points="740,12.928932188134524 750,20 740,27.071067811865476" stroke="black" stroke-width="2" fill="none"/></g><g transform="translate(80 0)"><ellipse cx="20" cy="20" rx="19" ry="19" fill="rgb(191,191,223)" stroke="black" stroke-width="2"/><text x="20" y="20" fill="black" font-family="sans-serif" font-size="18px" font-weight="bold" font-style="normal" dominant-baseline="middle" text-anchor="middle">a</text></g><g transform="translate(220 0)"><ellipse cx="20" cy="20" rx="19" ry="19" fill="rgb(191,191,223)" stroke="black" stroke-width="2"/><text x="20" y="20" fill="black" font-family="sans-serif" font-size="18px" font-weight="bold" font-style="normal" dominant-baseline="middle" text-anchor="middle">b</text></g><g transform="translate(420 0)"><ellipse cx="20" cy="20" rx="19" ry="19" fill="rgb(191,191,223)" stroke="black" stroke-width="2"/><text x="20" y="20" fill="black" font-family="sans-serif" font-size="18px" font-weight="bold" font-style="normal" dominant-baseline="middle" text-anchor="middle">c</text></g><g transform="translate(460 0)"><ellipse cx="20" cy="20" rx="19" ry="19" fill="rgb(191,191,223)" stroke="black" stroke-width="2"/><text x="20" y="20" fill="black" font-family="sans-serif" font-size="18px" font-weight="bold" font-style="normal" dominant-baseline="middle" text-anchor="middle">d</text></g><g transform="translate(600 0)"><ellipse cx="20" cy="20" rx="19" ry="19" fill="rgb(191,191,223)" stroke="black" stroke-width="2"/><text x="20" y="20" fill="black" font-family="sans-serif" font-size="18px" font-weight="bold" font-style="normal" dominant-baseline="middle" text-anchor="middle">e</text></g><g transform="translate(660 0)"><ellipse cx="20" cy="20" rx="19" ry="19" fill="rgb(191,191,223)" stroke="black" stroke-width="2"/><text x="20" y="20" fill="black" font-family="sans-serif" font-size="18px" font-weight="bold" font-style="normal" dominant-baseline="middle" text-anchor="middle">f</text></g><g transform="translate(719 0)"><line x1="0" y1="10" x2="0" y2="30" stroke="black" stroke-width="2"/></g></g></g></g></svg>