<svg xmlns="http://www.w3.org/2000/svg" viewBox="0 0 921.3843876330611 434.64101615137747" width="921.3843876330611" height="434.64101615137747"><rect x="0" y="0" fill="white" width="921.3843876330611" height="434.64101615137747"/><g transform="translate(25 25)"><g transform="translate(0 -2.6794919243112254)"><g><line x1="0" y1="20" x2="432.59818304894554" y2="20" stroke="black" stroke-width="2"/><polyline points="422.59818304894554,12.928932188134524 432.59818304894554,20 422.59818304894554,27.071067811865476" stroke="black" stroke-width="2" fill="none"/></g><g transform="translate(391.59818304894554 0) translate(0 0)"><line x1="0" y1="10" x2="0" y2="30" stroke="black" stroke-width="2"/></g><g transform="rotate(30 230.9401076758503 20) translate(230.9401076758503 0) translate(0 0)"><g><line x1="0" y1="20" x2="200" y2="20" stroke="black" stroke-width="2"/><polyline points="190,12.928932188134524 200,20 190,27.071067811865476" stroke="black" stroke-width="2" fill="none"/></g><g transform="translate(159 0) translate(0 0)"><line x1="0" y1="10" x2="0" y2="30" stroke="black" stroke-width="2"/></g><g transform="translate(100 0) translate(0 0)"><ellipse cx="20" cy="20" rx="19" ry="19" fill="hsl(35.3375244140625, 60%, 80%)" stroke="black" stroke-width="2"/><text x="20" y="20" fill="black" font-family="Arial, Helvetica, sans-serif" font-size="18px" font-weight="normal" font-style="normal" dominant-baseline="middle" text-anchor="middle">f</text></g><g transform="translate(40 0) translate(0 0)"><ellipse cx="20" cy="20" rx="19" ry="19" fill="hsl(252.61962890625, 60%, 80%)" stroke="black" stroke-width="2"/><text x="20" y="20" fill="black" font-family="Arial, Helvetica, sans-serif" font-size="18px" font-weight="normal" font-style="normal" dominant-baseline="middle" text-anchor="middle">e</text></g></g><g transform="rotate(30 115.47005383792515 20) translate(115.47005383792515 0) translate(0 0)"><g><line x1="0" y1="20" x2="220" y2="20" stroke="black" stroke-width="2"/><polyline points="210,12.928932188134524 220,20 210,27.071067811865476" stroke="black" stroke-width="2" fill="none"/></g><g transform="translate(179 0) translate(0 0)"><line x1="0" y1="10" x2="0" y2="30" stroke="black" stroke-width="2"/></g><g transform="translate(80 0) translate(0 0)"><ellipse cx="20" cy="20" rx="19" ry="19" fill="hsl(79.046630859375, 60%, 80%)" stroke="black" stroke-width="2"/><text x="20" y="20" fill="black" font-family="Arial, Helvetica, sans-serif" font-size="18px" font-weight="normal" font-style="normal" dominant-baseline="middle" text-anchor="middle">d</text></g><g transform="translate(40 0) translate(0 0)"><ellipse cx="20" cy="20" rx="19" ry="19" fill="hsl(31.66259765625, 60%, 80%)" stroke="black" stroke-width="2"/><text x="20" y="20" fill="black" font-family="Arial, Helvetica, sans-serif" font-size="18px" font-weight="normal" font-style="normal" dominant-baseline="middle" text-anchor="middle">c</text></g></g><g transform="rotate(30 23.09401076758503 20) translate(23.09401076758503 0) translate(0 0)"><g><line x1="0" y1="20" x2="400" y2="20" stroke="black" stroke-width="2"/><polyline points="390,12.928932188134524 400,20 390,27.071067811865476" stroke="black" stroke-width="2" fill="none"/></g><g transform="translate(359 0) translate(0 0)"><line x1="0" y1="10" x2="0" y2="30" stroke="black" stroke-width="2"/></g><g transform="translate(200 0) translate(0 0)"><ellipse cx="20" cy="20" rx="19" ry="19" fill="hsl(44.110107421875, 60%, 80%)" stroke="black" stroke-width="2"/><text x="20" y="20" fill="black" font-family="Arial, Helvetica, sans-serif" font-size="18px" font-weight="normal" font-style="normal" dominant-baseline="middle" text-anchor="middle">b</text></g><g transform="translate(60 0) translate(0 0)"><ellipse cx="20" cy="20" rx="19" ry="19" fill="hsl(320.9271240234375, 60%, 80%)" stroke="black" stroke-width="2"/><text x="20" y="20" fill="black" font-family="Arial, Helvetica, sans-serif" font-size="18px" font-weight="normal" font-style="normal" dominant-baseline="middle" text-anchor="middle">a</text></g></g></g><g transform="translate(0 254.6410161513775)"><rect x="0" y="10" width="871.3843876330611" height="48" fill="white" stroke="black" stroke-width="2" rx="0"/><text x="435.69219381653056" y="35px" fill="black" font-family="Arial, Helvetica, sans-serif" font-size="24px" font-weight="normal" font-style="normal" dominant-baseline="middle" text-anchor="middle" width="871.3843876330611">concatAll</text></g><g transform="translate(0 344.64101615137747)"><g><line x1="0" y1="20" x2="871.3843876330611" y2="20" stroke="black" stroke-width="2"/><polyline points="861.3843876330611,12.928932188134524 871.3843876330611,20 861.3843876330611,27.071067811865476" stroke="black" stroke-width="2" fill="none"/></g><g transform="translate(830.3843876330611 0) translate(0 0)"><line x1="0" y1="10" x2="0" y2="30" stroke="black" stroke-width="2"/></g><g transform="translate(765.1963660978911 0) translate(0 0)"><ellipse cx="20" cy="20" rx="19" ry="19" fill="hsl(35.3375244140625, 60%, 80%)" stroke="black" stroke-width="2"/><text x="20" y="20" fill="black" font-family="Arial, Helvetica, sans-serif" font-size="18px" font-weight="normal" font-style="normal" dominant-baseline="middle" text-anchor="middle">f</text></g><g transform="translate(695.9143337951359 0) translate(0 0)"><ellipse cx="20" cy="20" rx="19" ry="19" fill="hsl(252.61962890625, 60%, 80%)" stroke="black" stroke-width="2"/><text x="20" y="20" fill="black" font-family="Arial, Helvetica, sans-serif" font-size="18px" font-weight="normal" font-style="normal" dominant-baseline="middle" text-anchor="middle">e</text></g><g transform="translate(534.2562584220407 0) translate(0 0)"><ellipse cx="20" cy="20" rx="19" ry="19" fill="hsl(79.046630859375, 60%, 80%)" stroke="black" stroke-width="2"/><text x="20" y="20" fill="black" font-family="Arial, Helvetica, sans-serif" font-size="18px" font-weight="normal" font-style="normal" dominant-baseline="middle" text-anchor="middle">d</text></g><g transform="translate(488.06823688687064 0) translate(0 0)"><ellipse cx="20" cy="20" rx="19" ry="19" fill="hsl(31.66259765625, 60%, 80%)" stroke="black" stroke-width="2"/><text x="20" y="20" fill="black" font-family="Arial, Helvetica, sans-serif" font-size="18px" font-weight="normal" font-style="normal" dominant-baseline="middle" text-anchor="middle">c</text></g><g transform="translate(257.12812921102034 0) translate(0 0)"><ellipse cx="20" cy="20" rx="19" ry="19" fill="hsl(44.110107421875, 60%, 80%)" stroke="black" stroke-width="2"/><text x="20" y="20" fill="black" font-family="Arial, Helvetica, sans-serif" font-size="18px" font-weight="normal" font-style="normal" dominant-baseline="middle" text-anchor="middle">b</text></g><g transform="translate(95.47005383792515 0) translate(0 0)"><ellipse cx="20" cy="20" rx="19" ry="19" fill="hsl(320.9271240234375, 60%, 80%)" stroke="black" stroke-width="2"/><text x="20" y="20" fill="black" font-family="Arial, Helvetica, sans-serif" font-size="18px" font-weight="normal" font-style="normal" dominant-baseline="middle" text-anchor="middle">a</text></g></g></g></svg>