<svg xmlns="http://www.w3.org/2000/svg" viewBox="0 0 1280 449.6838985918956" width="1280" height="449.6838985918956"><rect x="0" y="0" fill="white" width="1280" height="449.6838985918956"/><g transform="translate(25 25)"><g transform="translate(0 0)"><text x="0" y="25" fill="black" font-family="Arial, Helvetica, sans-serif" font-size="18px" font-weight="normal" font-style="normal" dominant-baseline="middle">input</text><g transform="translate(100 0)"><g><line x1="0" y1="25" x2="560" y2="25" stroke="black" stroke-width="2"/><polyline points="550,17.928932188134524 560,25 550,32.071067811865476" stroke="black" stroke-width="2" fill="none"/></g><g transform="translate(509 0)"><line x1="0" y1="0" x2="0" y2="50" stroke="black" stroke-width="2"/></g><g transform="rotate(18 300 25) translate(300 0)"><g><line x1="0" y1="25" x2="302.3509338171841" y2="25" stroke="black" stroke-width="2"/><polyline points="292.3509338171841,17.928932188134524 302.3509338171841,25 292.3509338171841,32.071067811865476" stroke="black" stroke-width="2" fill="none"/></g><g transform="translate(251.3509338171841 0)"><line x1="0" y1="0" x2="0" y2="50" stroke="black" stroke-width="2"/></g><g transform="translate(169.2632003628881 0)"><ellipse cx="20" cy="25" rx="19" ry="19" fill="hsl(35.3375244140625, 60%, 80%)" stroke="black" stroke-width="2"/><text x="20" y="25" fill="black" font-family="Arial, Helvetica, sans-serif" font-size="18px" font-weight="normal" font-style="normal" dominant-baseline="middle" text-anchor="middle">f</text></g><g transform="translate(74.63160018144406 0)"><ellipse cx="20" cy="25" rx="19" ry="19" fill="hsl(252.61962890625, 60%, 80%)" stroke="black" stroke-width="2"/><text x="20" y="25" fill="black" font-family="Arial, Helvetica, sans-serif" font-size="18px" font-weight="normal" font-style="normal" dominant-baseline="middle" text-anchor="middle">e</text></g></g><g transform="rotate(18 150 25) translate(150 0)"><g><line x1="0" y1="25" x2="333.89480054433216" y2="25" stroke="black" stroke-width="2"/><polyline points="323.89480054433216,17.928932188134524 333.89480054433216,25 323.89480054433216,32.071067811865476" stroke="black" stroke-width="2" fill="none"/></g><g transform="translate(282.89480054433216 0)"><line x1="0" y1="0" x2="0" y2="50" stroke="black" stroke-width="2"/></g><g transform="translate(137.71933363574007 0)"><ellipse cx="20" cy="25" rx="19" ry="19" fill="hsl(79.046630859375, 60%, 80%)" stroke="black" stroke-width="2"/><text x="20" y="25" fill="black" font-family="Arial, Helvetica, sans-serif" font-size="18px" font-weight="normal" font-style="normal" dominant-baseline="middle" text-anchor="middle">d</text></g><g transform="translate(74.63160018144406 0)"><ellipse cx="20" cy="25" rx="19" ry="19" fill="hsl(31.66259765625, 60%, 80%)" stroke="black" stroke-width="2"/><text x="20" y="25" fill="black" font-family="Arial, Helvetica, sans-serif" font-size="18px" font-weight="normal" font-style="normal" dominant-baseline="middle" text-anchor="middle">c</text></g></g><g transform="rotate(18 30 25) translate(30 0)"><g><line x1="0" y1="25" x2="617.7896010886643" y2="25" stroke="black" stroke-width="2"/><polyline points="607.7896010886643,17.928932188134524 617.7896010886643,25 607.7896010886643,32.071067811865476" stroke="black" stroke-width="2" fill="none"/></g><g transform="translate(566.7896010886643 0)"><line x1="0" y1="0" x2="0" y2="50" stroke="black" stroke-width="2"/></g><g transform="translate(326.9825339986282 0)"><ellipse cx="20" cy="25" rx="19" ry="19" fill="hsl(44.110107421875, 60%, 80%)" stroke="black" stroke-width="2"/><text x="20" y="25" fill="black" font-family="Arial, Helvetica, sans-serif" font-size="18px" font-weight="normal" font-style="normal" dominant-baseline="middle" text-anchor="middle">b</text></g><g transform="translate(106.17546690859206 0)"><ellipse cx="20" cy="25" rx="19" ry="19" fill="hsl(320.9271240234375, 60%, 80%)" stroke="black" stroke-width="2"/><text x="20" y="25" fill="black" font-family="Arial, Helvetica, sans-serif" font-size="18px" font-weight="normal" font-style="normal" dominant-baseline="middle" text-anchor="middle">a</text></g></g></g></g><g transform="translate(0 259.6838985918956)"><rect x="0" y="10" width="1230" height="48" fill="white" stroke="black" stroke-width="2" rx="0"/><text x="615" y="35px" fill="black" font-family="Arial, Helvetica, sans-serif" font-size="24px" font-weight="normal" font-style="normal" dominant-baseline="middle" text-anchor="middle" width="1230">concatAll</text></g><g transform="translate(0 349.6838985918956)"><text x="0" y="25" fill="black" font-family="Arial, Helvetica, sans-serif" font-size="18px" font-weight="normal" font-style="normal" dominant-baseline="middle">output</text><g transform="translate(100 0)"><g><line x1="0" y1="25" x2="1130" y2="25" stroke="black" stroke-width="2"/><polyline points="1120,17.928932188134524 1130,25 1120,32.071067811865476" stroke="black" stroke-width="2" fill="none"/></g><g transform="translate(1079 0)"><line x1="0" y1="0" x2="0" y2="50" stroke="black" stroke-width="2"/></g><g transform="translate(1000 0)"><ellipse cx="20" cy="25" rx="19" ry="19" fill="hsl(35.3375244140625, 60%, 80%)" stroke="black" stroke-width="2"/><text x="20" y="25" fill="black" font-family="Arial, Helvetica, sans-serif" font-size="18px" font-weight="normal" font-style="normal" dominant-baseline="middle" text-anchor="middle">f</text></g><g transform="translate(910 0)"><ellipse cx="20" cy="25" rx="19" ry="19" fill="hsl(252.61962890625, 60%, 80%)" stroke="black" stroke-width="2"/><text x="20" y="25" fill="black" font-family="Arial, Helvetica, sans-serif" font-size="18px" font-weight="normal" font-style="normal" dominant-baseline="middle" text-anchor="middle">e</text></g><g transform="translate(700 0)"><ellipse cx="20" cy="25" rx="19" ry="19" fill="hsl(79.046630859375, 60%, 80%)" stroke="black" stroke-width="2"/><text x="20" y="25" fill="black" font-family="Arial, Helvetica, sans-serif" font-size="18px" font-weight="normal" font-style="normal" dominant-baseline="middle" text-anchor="middle">d</text></g><g transform="translate(640 0)"><ellipse cx="20" cy="25" rx="19" ry="19" fill="hsl(31.66259765625, 60%, 80%)" stroke="black" stroke-width="2"/><text x="20" y="25" fill="black" font-family="Arial, Helvetica, sans-serif" font-size="18px" font-weight="normal" font-style="normal" dominant-baseline="middle" text-anchor="middle">c</text></g><g transform="translate(340 0)"><ellipse cx="20" cy="25" rx="19" ry="19" fill="hsl(44.110107421875, 60%, 80%)" stroke="black" stroke-width="2"/><text x="20" y="25" fill="black" font-family="Arial, Helvetica, sans-serif" font-size="18px" font-weight="normal" font-style="normal" dominant-baseline="middle" text-anchor="middle">b</text></g><g transform="translate(130 0)"><ellipse cx="20" cy="25" rx="19" ry="19" fill="hsl(320.9271240234375, 60%, 80%)" stroke="black" stroke-width="2"/><text x="20" y="25" fill="black" font-family="Arial, Helvetica, sans-serif" font-size="18px" font-weight="normal" font-style="normal" dominant-baseline="middle" text-anchor="middle">a</text></g></g></g></g></svg>