<svg xmlns="http://www.w3.org/2000/svg" width="1152.309" height="411.407" viewBox="0 0 1152.309 411.407"><path fill="#fff" d="M0 0h1152.309v411.407H0z"/><g stroke="#000" stroke-width="2"><path d="M25 50h770"/><path fill="none" stroke-linecap="square" d="M785 44.226 795 50l-10 5.774"/></g><path stroke="#000" stroke-width="2" d="M744 25v50"/><g stroke="#000" stroke-width="2"><path d="m655 50 467.553 151.917"/><path fill="none" stroke-linecap="square" d="m1114.826 193.336 7.727 8.581-11.295 2.4"/></g><path stroke="#000" stroke-width="2" d="m1081.774 162.38-15.45 47.554"/><g transform="rotate(18 100.859 3037.917)"><circle cx="20" cy="25" r="19" fill="hsl(276, 60%, 80%)" stroke="#000" stroke-width="2"/><text dominant-baseline="middle" font-family="Arial, Helvetica, sans-serif" font-size="18" text-anchor="middle" transform="translate(20 25)">i</text></g><g transform="rotate(18 163.947 2639.597)"><circle cx="20" cy="25" r="19" fill="hsl(102, 60%, 80%)" stroke="#000" stroke-width="2"/><text dominant-baseline="middle" font-family="Arial, Helvetica, sans-serif" font-size="18" text-anchor="middle" transform="translate(20 25)">h</text></g><g transform="rotate(18 211.262 2340.856)"><circle cx="20" cy="25" r="19" fill="hsl(32, 60%, 80%)" stroke="#000" stroke-width="2"/><text dominant-baseline="middle" font-family="Arial, Helvetica, sans-serif" font-size="18" text-anchor="middle" transform="translate(20 25)">g</text></g><g style="filter:opacity(50%)"><g stroke="#000" stroke-width="2"><path d="m445 50 467.553 151.917"/><path fill="none" stroke-linecap="square" d="m904.826 193.336 7.727 8.581-11.295 2.4"/></g><path stroke="#000" stroke-width="2" d="m871.774 162.38-15.45 47.554"/><g transform="rotate(18 -4.141 2374.973)"><circle cx="20" cy="25" r="19" fill="hsl(35, 60%, 80%)" stroke="#000" stroke-width="2"/><text dominant-baseline="middle" font-family="Arial, Helvetica, sans-serif" font-size="18" text-anchor="middle" transform="translate(20 25)">f</text></g><g transform="rotate(18 58.947 1976.653)"><circle cx="20" cy="25" r="19" fill="hsl(253, 60%, 80%)" stroke="#000" stroke-width="2"/><text dominant-baseline="middle" font-family="Arial, Helvetica, sans-serif" font-size="18" text-anchor="middle" transform="translate(20 25)">e</text></g><g transform="rotate(18 106.262 1677.912)"><circle cx="20" cy="25" r="19" fill="hsl(79, 60%, 80%)" stroke="#000" stroke-width="2"/><text dominant-baseline="middle" font-family="Arial, Helvetica, sans-serif" font-size="18" text-anchor="middle" transform="translate(20 25)">d</text></g></g><g stroke="#000" stroke-width="2"><path d="m205 50 437.553 142.17"/><path fill="none" stroke-linecap="square" d="m634.826 183.588 7.727 8.582-11.295 2.4"/></g><path stroke="#000" stroke-width="2" d="m601.774 152.633-15.45 47.553"/><g transform="rotate(18 -124.141 1617.323)"><circle cx="20" cy="25" r="19" fill="hsl(32, 60%, 80%)" stroke="#000" stroke-width="2"/><text dominant-baseline="middle" font-family="Arial, Helvetica, sans-serif" font-size="18" text-anchor="middle" transform="translate(20 25)">c</text></g><g transform="rotate(18 -61.053 1219.002)"><circle cx="20" cy="25" r="19" fill="hsl(44, 60%, 80%)" stroke="#000" stroke-width="2"/><text dominant-baseline="middle" font-family="Arial, Helvetica, sans-serif" font-size="18" text-anchor="middle" transform="translate(20 25)">b</text></g><g transform="rotate(18 2.034 820.682)"><circle cx="20" cy="25" r="19" fill="hsl(321, 60%, 80%)" stroke="#000" stroke-width="2"/><text dominant-baseline="middle" font-family="Arial, Helvetica, sans-serif" font-size="18" text-anchor="middle" transform="translate(20 25)">a</text></g><g transform="translate(25 246.407)"><rect width="1100.309" height="48" x="1" y="11" fill="#fff" stroke="#000" stroke-width="2" rx="0"/><text x="551.155" y="35" dominant-baseline="middle" font-family="Arial, Helvetica, sans-serif" font-size="24" text-anchor="middle">exhaustAll</text></g><g stroke="#000" stroke-width="2"><path d="M25 361.407h1100"/><path fill="none" stroke-linecap="square" d="m1115 355.634 10 5.773-10 5.774"/></g><path stroke="#000" stroke-width="2" d="M1074 336.407v50"/><g transform="translate(935 336.407)"><circle cx="20" cy="25" r="19" fill="hsl(276, 60%, 80%)" stroke="#000" stroke-width="2"/><text dominant-baseline="middle" font-family="Arial, Helvetica, sans-serif" font-size="18" text-anchor="middle" transform="translate(20 25)">i</text></g><g transform="translate(815 336.407)"><circle cx="20" cy="25" r="19" fill="hsl(102, 60%, 80%)" stroke="#000" stroke-width="2"/><text dominant-baseline="middle" font-family="Arial, Helvetica, sans-serif" font-size="18" text-anchor="middle" transform="translate(20 25)">h</text></g><g transform="translate(725 336.407)"><circle cx="20" cy="25" r="19" fill="hsl(32, 60%, 80%)" stroke="#000" stroke-width="2"/><text dominant-baseline="middle" font-family="Arial, Helvetica, sans-serif" font-size="18" text-anchor="middle" transform="translate(20 25)">g</text></g><g transform="translate(485 336.407)"><circle cx="20" cy="25" r="19" fill="hsl(32, 60%, 80%)" stroke="#000" stroke-width="2"/><text dominant-baseline="middle" font-family="Arial, Helvetica, sans-serif" font-size="18" text-anchor="middle" transform="translate(20 25)">c</text></g><g transform="translate(365 336.407)"><circle cx="20" cy="25" r="19" fill="hsl(44, 60%, 80%)" stroke="#000" stroke-width="2"/><text dominant-baseline="middle" font-family="Arial, Helvetica, sans-serif" font-size="18" text-anchor="middle" transform="translate(20 25)">b</text></g><g transform="translate(245 336.407)"><circle cx="20" cy="25" r="19" fill="hsl(321, 60%, 80%)" stroke="#000" stroke-width="2"/><text dominant-baseline="middle" font-family="Arial, Helvetica, sans-serif" font-size="18" text-anchor="middle" transform="translate(20 25)">a</text></g></svg>