<svg xmlns="http://www.w3.org/2000/svg" width="682.309" height="330" viewBox="0 0 682.309 330"><path fill="#fff" d="M0 0h682.309v330H0z"/><text y="25" dominant-baseline="middle" font-family="Arial, Helvetica, sans-serif" font-size="18" transform="translate(25 25)">source</text><g stroke="#000" stroke-width="2"><path d="M125 50h290"/><path fill="none" stroke-linecap="square" d="M405 44.226 415 50l-10 5.774"/></g><g stroke="#000" stroke-width="2"><path d="m350 35 30 30M380 35l-30 30"/></g><g transform="translate(255 25)"><circle cx="20" cy="25" r="19" fill="hsl(44, 60%, 80%)" stroke="#000" stroke-width="2"/><text dominant-baseline="middle" font-family="Arial, Helvetica, sans-serif" font-size="18" text-anchor="middle" transform="translate(20 25)">b</text></g><g transform="translate(165 25)"><circle cx="20" cy="25" r="19" fill="hsl(321, 60%, 80%)" stroke="#000" stroke-width="2"/><text dominant-baseline="middle" font-family="Arial, Helvetica, sans-serif" font-size="18" text-anchor="middle" transform="translate(20 25)">a</text></g><text y="25" dominant-baseline="middle" font-family="Arial, Helvetica, sans-serif" font-size="18" transform="translate(25 95)">next</text><g stroke="#000" stroke-width="2"><path d="M125 120h290"/><path fill="none" stroke-linecap="square" d="M405 114.226 415 120l-10 5.774"/></g><path stroke="#000" stroke-width="2" d="M364 95v50"/><g transform="translate(255 95)"><circle cx="20" cy="25" r="19" fill="hsl(79, 60%, 80%)" stroke="#000" stroke-width="2"/><text dominant-baseline="middle" font-family="Arial, Helvetica, sans-serif" font-size="18" text-anchor="middle" transform="translate(20 25)">d</text></g><g transform="translate(165 95)"><circle cx="20" cy="25" r="19" fill="hsl(32, 60%, 80%)" stroke="#000" stroke-width="2"/><text dominant-baseline="middle" font-family="Arial, Helvetica, sans-serif" font-size="18" text-anchor="middle" transform="translate(20 25)">c</text></g><g transform="translate(25 165)"><rect width="630.309" height="48" x="1" y="11" fill="#fff" stroke="#000" stroke-width="2" rx="0"/><text x="316.155" y="35" dominant-baseline="middle" font-family="Arial, Helvetica, sans-serif" font-size="24" text-anchor="middle">onErrorResumeNext</text></g><text y="25" dominant-baseline="middle" font-family="Arial, Helvetica, sans-serif" font-size="18" transform="translate(25 255)">output</text><g stroke="#000" stroke-width="2"><path d="M125 280h530"/><path fill="none" stroke-linecap="square" d="M645 274.226 655 280l-10 5.774"/></g><path stroke="#000" stroke-width="2" d="M604 255v50"/><g transform="translate(495 255)"><circle cx="20" cy="25" r="19" fill="hsl(79, 60%, 80%)" stroke="#000" stroke-width="2"/><text dominant-baseline="middle" font-family="Arial, Helvetica, sans-serif" font-size="18" text-anchor="middle" transform="translate(20 25)">d</text></g><g transform="translate(405 255)"><circle cx="20" cy="25" r="19" fill="hsl(32, 60%, 80%)" stroke="#000" stroke-width="2"/><text dominant-baseline="middle" font-family="Arial, Helvetica, sans-serif" font-size="18" text-anchor="middle" transform="translate(20 25)">c</text></g><g transform="translate(255 255)"><circle cx="20" cy="25" r="19" fill="hsl(44, 60%, 80%)" stroke="#000" stroke-width="2"/><text dominant-baseline="middle" font-family="Arial, Helvetica, sans-serif" font-size="18" text-anchor="middle" transform="translate(20 25)">b</text></g><g transform="translate(165 255)"><circle cx="20" cy="25" r="19" fill="hsl(321, 60%, 80%)" stroke="#000" stroke-width="2"/><text dominant-baseline="middle" font-family="Arial, Helvetica, sans-serif" font-size="18" text-anchor="middle" transform="translate(20 25)">a</text></g></svg>