<svg xmlns="http://www.w3.org/2000/svg" width="680" height="330"><path fill="#fff" d="M0 0h680v330H0z"/><text y="25" font-family="Arial, Helvetica, sans-serif" font-size="18" dominant-baseline="middle" transform="translate(25 25)">source</text><g role="list" aria-label="Stream: source" tabindex="0"><g stroke="#000" stroke-width="2"><path d="M125 50h290"/><path fill="none" stroke-linecap="square" d="M405 44.226L415 50l-10 5.774"/></g><g role="listitem" aria-label="Error" tabindex="1" stroke="#000" stroke-width="2"><path d="M350 35l30 30M380 35l-30 30"/></g><g role="listitem" aria-label="Message: b" tabindex="2" transform="translate(255 25)"><circle cx="20" cy="25" fill="hsl(44, 60%, 80%)" stroke="#000" stroke-width="2" r="19"/><text font-family="Arial, Helvetica, sans-serif" font-size="18" dominant-baseline="middle" text-anchor="middle" transform="translate(20 25)">b</text></g><g role="listitem" aria-label="Message: a" tabindex="3" transform="translate(165 25)"><circle cx="20" cy="25" fill="hsl(321, 60%, 80%)" stroke="#000" stroke-width="2" r="19"/><text font-family="Arial, Helvetica, sans-serif" font-size="18" dominant-baseline="middle" text-anchor="middle" transform="translate(20 25)">a</text></g></g><text y="25" font-family="Arial, Helvetica, sans-serif" font-size="18" dominant-baseline="middle" transform="translate(25 95)">next</text><g role="list" aria-label="Stream: next" tabindex="4"><g stroke="#000" stroke-width="2"><path d="M125 120h290"/><path fill="none" stroke-linecap="square" d="M405 114.226L415 120l-10 5.774"/></g><path stroke="#000" stroke-width="2" d="M364 95v50" role="listitem" aria-label="Completion" tabindex="5"/><g role="listitem" aria-label="Message: d" tabindex="6" transform="translate(255 95)"><circle cx="20" cy="25" fill="hsl(79, 60%, 80%)" stroke="#000" stroke-width="2" r="19"/><text font-family="Arial, Helvetica, sans-serif" font-size="18" dominant-baseline="middle" text-anchor="middle" transform="translate(20 25)">d</text></g><g role="listitem" aria-label="Message: c" tabindex="7" transform="translate(165 95)"><circle cx="20" cy="25" fill="hsl(32, 60%, 80%)" stroke="#000" stroke-width="2" r="19"/><text font-family="Arial, Helvetica, sans-serif" font-size="18" dominant-baseline="middle" text-anchor="middle" transform="translate(20 25)">c</text></g></g><g aria-label="Operator: onErrorResumeNext" tabindex="8" transform="translate(25 165)"><rect y="10" width="630" height="48" fill="#fff" stroke="#000" stroke-width="2" rx="0"/><text x="315" y="35" font-family="Arial, Helvetica, sans-serif" font-size="24" dominant-baseline="middle" text-anchor="middle">onErrorResumeNext</text></g><g><text y="25" font-family="Arial, Helvetica, sans-serif" font-size="18" dominant-baseline="middle" transform="translate(25 255)">output</text><g role="list" aria-label="Stream: output" tabindex="9"><g stroke="#000" stroke-width="2"><path d="M125 280h530"/><path fill="none" stroke-linecap="square" d="M645 274.226L655 280l-10 5.774"/></g><path stroke="#000" stroke-width="2" d="M604 255v50" role="listitem" aria-label="Completion" tabindex="10"/><g role="listitem" aria-label="Message: d" tabindex="11" transform="translate(495 255)"><circle cx="20" cy="25" fill="hsl(79, 60%, 80%)" stroke="#000" stroke-width="2" r="19"/><text font-family="Arial, Helvetica, sans-serif" font-size="18" dominant-baseline="middle" text-anchor="middle" transform="translate(20 25)">d</text></g><g role="listitem" aria-label="Message: c" tabindex="12" transform="translate(405 255)"><circle cx="20" cy="25" fill="hsl(32, 60%, 80%)" stroke="#000" stroke-width="2" r="19"/><text font-family="Arial, Helvetica, sans-serif" font-size="18" dominant-baseline="middle" text-anchor="middle" transform="translate(20 25)">c</text></g><g role="listitem" aria-label="Message: b" tabindex="13" transform="translate(255 255)"><circle cx="20" cy="25" fill="hsl(44, 60%, 80%)" stroke="#000" stroke-width="2" r="19"/><text font-family="Arial, Helvetica, sans-serif" font-size="18" dominant-baseline="middle" text-anchor="middle" transform="translate(20 25)">b</text></g><g role="listitem" aria-label="Message: a" tabindex="14" transform="translate(165 255)"><circle cx="20" cy="25" fill="hsl(321, 60%, 80%)" stroke="#000" stroke-width="2" r="19"/><text font-family="Arial, Helvetica, sans-serif" font-size="18" dominant-baseline="middle" text-anchor="middle" transform="translate(20 25)">a</text></g></g></g></svg>