<svg xmlns="http://www.w3.org/2000/svg" width="490" height="200"><rect x="0" y="0" fill="white" width="490" height="200"/><g transform="translate(20 20)"><g transform="translate(0 0)"><text x="0" y="20" fill="black" font-family="sans-serif" font-size="18px" font-weight="bold" font-style="normal" dominant-baseline="middle">source</text><g transform="translate(100 0)"><g><line x1="0" y1="20" x2="190" y2="20" stroke="black" stroke-width="2"/><polyline points="180,12.928932188134524 190,20 180,27.071067811865476" stroke="black" stroke-width="2" fill="none"/></g><g transform="translate(20 0)"><ellipse cx="20" cy="20" rx="19" ry="19" fill="hsl(348.079833984375, 60%, 80%)" stroke="black" stroke-width="2"/><text x="20" y="20" fill="black" font-family="sans-serif" font-size="18px" font-weight="bold" font-style="normal" dominant-baseline="middle" text-anchor="middle">a</text></g><g transform="translate(80 0)"><ellipse cx="20" cy="20" rx="19" ry="19" fill="hsl(303.6236572265625, 60%, 80%)" stroke="black" stroke-width="2"/><text x="20" y="20" fill="black" font-family="sans-serif" font-size="18px" font-weight="bold" font-style="normal" dominant-baseline="middle" text-anchor="middle">b</text></g><g transform="translate(150 10)"><line x1="0" y1="0" x2="20" y2="20" stroke="red" stroke-width="4"/><line x1="20" y1="0" x2="0" y2="20" stroke="red" stroke-width="4"/></g></g></g><g transform="translate(0 60)"><text x="0" y="20" fill="black" font-family="sans-serif" font-size="18px" font-weight="bold" font-style="normal" dominant-baseline="middle">next</text><g transform="translate(100 0)"><g><line x1="0" y1="20" x2="190" y2="20" stroke="black" stroke-width="2"/><polyline points="180,12.928932188134524 190,20 180,27.071067811865476" stroke="black" stroke-width="2" fill="none"/></g><g transform="translate(20 0)"><ellipse cx="20" cy="20" rx="19" ry="19" fill="hsl(232.75634765625, 60%, 80%)" stroke="black" stroke-width="2"/><text x="20" y="20" fill="black" font-family="sans-serif" font-size="18px" font-weight="bold" font-style="normal" dominant-baseline="middle" text-anchor="middle">c</text></g><g transform="translate(80 0)"><ellipse cx="20" cy="20" rx="19" ry="19" fill="hsl(76.26708984375, 60%, 80%)" stroke="black" stroke-width="2"/><text x="20" y="20" fill="black" font-family="sans-serif" font-size="18px" font-weight="bold" font-style="normal" dominant-baseline="middle" text-anchor="middle">d</text></g><g transform="translate(159 0)"><line x1="0" y1="10" x2="0" y2="30" stroke="black" stroke-width="2"/></g></g></g><g transform="translate(0 120)"><text x="0" y="20" fill="black" font-family="sans-serif" font-size="18px" font-weight="bold" font-style="normal" dominant-baseline="middle">output</text><g transform="translate(100 0)"><g><line x1="0" y1="20" x2="350" y2="20" stroke="black" stroke-width="2"/><polyline points="340,12.928932188134524 350,20 340,27.071067811865476" stroke="black" stroke-width="2" fill="none"/></g><g transform="translate(20 0)"><ellipse cx="20" cy="20" rx="19" ry="19" fill="hsl(348.079833984375, 60%, 80%)" stroke="black" stroke-width="2"/><text x="20" y="20" fill="black" font-family="sans-serif" font-size="18px" font-weight="bold" font-style="normal" dominant-baseline="middle" text-anchor="middle">a</text></g><g transform="translate(80 0)"><ellipse cx="20" cy="20" rx="19" ry="19" fill="hsl(303.6236572265625, 60%, 80%)" stroke="black" stroke-width="2"/><text x="20" y="20" fill="black" font-family="sans-serif" font-size="18px" font-weight="bold" font-style="normal" dominant-baseline="middle" text-anchor="middle">b</text></g><g transform="translate(180 0)"><ellipse cx="20" cy="20" rx="19" ry="19" fill="hsl(232.75634765625, 60%, 80%)" stroke="black" stroke-width="2"/><text x="20" y="20" fill="black" font-family="sans-serif" font-size="18px" font-weight="bold" font-style="normal" dominant-baseline="middle" text-anchor="middle">c</text></g><g transform="translate(240 0)"><ellipse cx="20" cy="20" rx="19" ry="19" fill="hsl(76.26708984375, 60%, 80%)" stroke="black" stroke-width="2"/><text x="20" y="20" fill="black" font-family="sans-serif" font-size="18px" font-weight="bold" font-style="normal" dominant-baseline="middle" text-anchor="middle">d</text></g><g transform="translate(319 0)"><line x1="0" y1="10" x2="0" y2="30" stroke="black" stroke-width="2"/></g></g></g></g></svg>