<svg xmlns="http://www.w3.org/2000/svg" viewBox="0 0 680 330" width="680" height="330"><path fill="#fff" d="M0 0h680v330H0z"/><text y="25" font-family="Arial, Helvetica, sans-serif" font-size="18" dominant-baseline="middle" transform="translate(25 25)">source</text><g stroke="#000" stroke-width="2"><path d="M125 50h290"/><path fill="none" stroke-linecap="square" d="M405 44.226 415 50l-10 5.774"/></g><g stroke="#000" stroke-width="2"><path d="m350 35 30 30M380 35l-30 30"/></g><g transform="translate(255 25)"><circle cx="20" cy="25" fill="hsl(44, 60%, 80%)" stroke="#000" stroke-width="2" r="19"/><text font-family="Arial, Helvetica, sans-serif" font-size="18" dominant-baseline="middle" text-anchor="middle" transform="translate(20 25)">b</text></g><g transform="translate(165 25)"><circle cx="20" cy="25" fill="hsl(321, 60%, 80%)" stroke="#000" stroke-width="2" r="19"/><text font-family="Arial, Helvetica, sans-serif" font-size="18" dominant-baseline="middle" text-anchor="middle" transform="translate(20 25)">a</text></g><text y="25" font-family="Arial, Helvetica, sans-serif" font-size="18" dominant-baseline="middle" transform="translate(25 95)">next</text><g stroke="#000" stroke-width="2"><path d="M125 120h290"/><path fill="none" stroke-linecap="square" d="M405 114.226 415 120l-10 5.774"/></g><path stroke="#000" stroke-width="2" d="M364 95v50"/><g transform="translate(255 95)"><circle cx="20" cy="25" fill="hsl(79, 60%, 80%)" stroke="#000" stroke-width="2" r="19"/><text font-family="Arial, Helvetica, sans-serif" font-size="18" dominant-baseline="middle" text-anchor="middle" transform="translate(20 25)">d</text></g><g transform="translate(165 95)"><circle cx="20" cy="25" fill="hsl(32, 60%, 80%)" stroke="#000" stroke-width="2" r="19"/><text font-family="Arial, Helvetica, sans-serif" font-size="18" dominant-baseline="middle" text-anchor="middle" transform="translate(20 25)">c</text></g><g transform="translate(25 165)"><rect y="10" width="630" height="48" fill="#fff" stroke="#000" stroke-width="2" rx="0"/><text x="315" y="35" dominant-baseline="middle" text-anchor="middle" font-family="Arial, Helvetica, sans-serif" font-size="24">onErrorResumeNext</text></g><text y="25" font-family="Arial, Helvetica, sans-serif" font-size="18" dominant-baseline="middle" transform="translate(25 255)">output</text><g stroke="#000" stroke-width="2"><path d="M125 280h530"/><path fill="none" stroke-linecap="square" d="M645 274.226 655 280l-10 5.774"/></g><path stroke="#000" stroke-width="2" d="M604 255v50"/><g transform="translate(495 255)"><circle cx="20" cy="25" fill="hsl(79, 60%, 80%)" stroke="#000" stroke-width="2" r="19"/><text font-family="Arial, Helvetica, sans-serif" font-size="18" dominant-baseline="middle" text-anchor="middle" transform="translate(20 25)">d</text></g><g transform="translate(405 255)"><circle cx="20" cy="25" fill="hsl(32, 60%, 80%)" stroke="#000" stroke-width="2" r="19"/><text font-family="Arial, Helvetica, sans-serif" font-size="18" dominant-baseline="middle" text-anchor="middle" transform="translate(20 25)">c</text></g><g transform="translate(255 255)"><circle cx="20" cy="25" fill="hsl(44, 60%, 80%)" stroke="#000" stroke-width="2" r="19"/><text font-family="Arial, Helvetica, sans-serif" font-size="18" dominant-baseline="middle" text-anchor="middle" transform="translate(20 25)">b</text></g><g transform="translate(165 255)"><circle cx="20" cy="25" fill="hsl(321, 60%, 80%)" stroke="#000" stroke-width="2" r="19"/><text font-family="Arial, Helvetica, sans-serif" font-size="18" dominant-baseline="middle" text-anchor="middle" transform="translate(20 25)">a</text></g></svg>