<svg xmlns="http://www.w3.org/2000/svg" viewBox="0 0 704.7018676343682 330" width="704.7018676343682" height="330"><rect x="0" y="0" fill="white" width="704.7018676343682" height="330"/><g transform="translate(25 25)"><g transform="translate(0 0)"><text x="0" y="25" fill="black" font-family="Arial, Helvetica, sans-serif" font-size="18px" font-weight="normal" font-style="normal" dominant-baseline="middle">source</text><g transform="translate(100 0)"><g><line x1="0" y1="25" x2="302.3509338171841" y2="25" stroke="black" stroke-width="2"/><polyline points="292.3509338171841,17.928932188134524 302.3509338171841,25 292.3509338171841,32.071067811865476" stroke="black" stroke-width="2" fill="none"/></g><g transform="translate(237.3509338171841 10) translate(0 0)"><line x1="0" y1="0" x2="30" y2="30" stroke="black" stroke-width="2"/><line x1="30" y1="0" x2="0" y2="30" stroke="black" stroke-width="2"/></g><g transform="translate(137.71933363574007 0) translate(0 0)"><ellipse cx="20" cy="25" rx="19" ry="19" fill="hsl(44.110107421875, 60%, 80%)" stroke="black" stroke-width="2"/><text x="20" y="25" fill="black" font-family="Arial, Helvetica, sans-serif" font-size="18px" font-weight="normal" font-style="normal" dominant-baseline="middle" text-anchor="middle">b</text></g><g transform="translate(43.08773345429603 0) translate(0 0)"><ellipse cx="20" cy="25" rx="19" ry="19" fill="hsl(320.9271240234375, 60%, 80%)" stroke="black" stroke-width="2"/><text x="20" y="25" fill="black" font-family="Arial, Helvetica, sans-serif" font-size="18px" font-weight="normal" font-style="normal" dominant-baseline="middle" text-anchor="middle">a</text></g></g></g><g transform="translate(0 70)"><text x="0" y="25" fill="black" font-family="Arial, Helvetica, sans-serif" font-size="18px" font-weight="normal" font-style="normal" dominant-baseline="middle">next</text><g transform="translate(100 0)"><g><line x1="0" y1="25" x2="302.3509338171841" y2="25" stroke="black" stroke-width="2"/><polyline points="292.3509338171841,17.928932188134524 302.3509338171841,25 292.3509338171841,32.071067811865476" stroke="black" stroke-width="2" fill="none"/></g><g transform="translate(251.3509338171841 0) translate(0 0)"><line x1="0" y1="0" x2="0" y2="50" stroke="black" stroke-width="2"/></g><g transform="translate(137.71933363574007 0) translate(0 0)"><ellipse cx="20" cy="25" rx="19" ry="19" fill="hsl(79.046630859375, 60%, 80%)" stroke="black" stroke-width="2"/><text x="20" y="25" fill="black" font-family="Arial, Helvetica, sans-serif" font-size="18px" font-weight="normal" font-style="normal" dominant-baseline="middle" text-anchor="middle">d</text></g><g transform="translate(43.08773345429603 0) translate(0 0)"><ellipse cx="20" cy="25" rx="19" ry="19" fill="hsl(31.66259765625, 60%, 80%)" stroke="black" stroke-width="2"/><text x="20" y="25" fill="black" font-family="Arial, Helvetica, sans-serif" font-size="18px" font-weight="normal" font-style="normal" dominant-baseline="middle" text-anchor="middle">c</text></g></g></g><g transform="translate(0 140)"><rect x="0" y="10" width="654.7018676343682" height="48" fill="white" stroke="black" stroke-width="2" rx="0"/><text x="327.3509338171841" y="35px" fill="black" font-family="Arial, Helvetica, sans-serif" font-size="24px" font-weight="normal" font-style="normal" dominant-baseline="middle" text-anchor="middle" width="654.7018676343682">onErrorResumeNext</text></g><g transform="translate(0 230)"><text x="0" y="25" fill="black" font-family="Arial, Helvetica, sans-serif" font-size="18px" font-weight="normal" font-style="normal" dominant-baseline="middle">output</text><g transform="translate(100 0)"><g><line x1="0" y1="25" x2="554.7018676343682" y2="25" stroke="black" stroke-width="2"/><polyline points="544.7018676343682,17.928932188134524 554.7018676343682,25 544.7018676343682,32.071067811865476" stroke="black" stroke-width="2" fill="none"/></g><g transform="translate(503.7018676343682 0) translate(0 0)"><line x1="0" y1="0" x2="0" y2="50" stroke="black" stroke-width="2"/></g><g transform="translate(390.0702674529242 0) translate(0 0)"><ellipse cx="20" cy="25" rx="19" ry="19" fill="hsl(79.046630859375, 60%, 80%)" stroke="black" stroke-width="2"/><text x="20" y="25" fill="black" font-family="Arial, Helvetica, sans-serif" font-size="18px" font-weight="normal" font-style="normal" dominant-baseline="middle" text-anchor="middle">d</text></g><g transform="translate(295.43866727148014 0) translate(0 0)"><ellipse cx="20" cy="25" rx="19" ry="19" fill="hsl(31.66259765625, 60%, 80%)" stroke="black" stroke-width="2"/><text x="20" y="25" fill="black" font-family="Arial, Helvetica, sans-serif" font-size="18px" font-weight="normal" font-style="normal" dominant-baseline="middle" text-anchor="middle">c</text></g><g transform="translate(137.71933363574007 0) translate(0 0)"><ellipse cx="20" cy="25" rx="19" ry="19" fill="hsl(44.110107421875, 60%, 80%)" stroke="black" stroke-width="2"/><text x="20" y="25" fill="black" font-family="Arial, Helvetica, sans-serif" font-size="18px" font-weight="normal" font-style="normal" dominant-baseline="middle" text-anchor="middle">b</text></g><g transform="translate(43.08773345429603 0) translate(0 0)"><ellipse cx="20" cy="25" rx="19" ry="19" fill="hsl(320.9271240234375, 60%, 80%)" stroke="black" stroke-width="2"/><text x="20" y="25" fill="black" font-family="Arial, Helvetica, sans-serif" font-size="18px" font-weight="normal" font-style="normal" dominant-baseline="middle" text-anchor="middle">a</text></g></g></g></g></svg>