<svg xmlns="http://www.w3.org/2000/svg" viewBox="0 0 440 290" width="440" height="290"><rect x="0" y="0" fill="white" width="440" height="290"/><g transform="translate(25 25)"><g transform="translate(0 0)"><g><line x1="0" y1="30" x2="390" y2="30" stroke="black" stroke-width="2"/><polyline points="380,22.928932188134524 390,30 380,37.071067811865476" stroke="black" stroke-width="2" fill="none"/></g><g transform="translate(329 0) translate(0 0)"><line x1="0" y1="5" x2="0" y2="55" stroke="black" stroke-width="2"/></g><g transform="translate(210 0) translate(0 0)"><ellipse cx="30" cy="30" rx="29" ry="29" fill="hsl(335.0006103515625, 60%, 80%)" stroke="black" stroke-width="2"/><text x="30" y="30" fill="black" font-family="Arial, Helvetica, sans-serif" font-size="18px" font-weight="normal" font-style="normal" dominant-baseline="middle" text-anchor="middle">{v:3}</text></g><g transform="translate(120 0) translate(0 0)"><ellipse cx="30" cy="30" rx="29" ry="29" fill="hsl(119.3609619140625, 60%, 80%)" stroke="black" stroke-width="2"/><text x="30" y="30" fill="black" font-family="Arial, Helvetica, sans-serif" font-size="18px" font-weight="normal" font-style="normal" dominant-baseline="middle" text-anchor="middle">{v:2}</text></g><g transform="translate(30 0) translate(0 0)"><ellipse cx="30" cy="30" rx="29" ry="29" fill="hsl(184.94384765625, 60%, 80%)" stroke="black" stroke-width="2"/><text x="30" y="30" fill="black" font-family="Arial, Helvetica, sans-serif" font-size="18px" font-weight="normal" font-style="normal" dominant-baseline="middle" text-anchor="middle">{v:1}</text></g></g><g transform="translate(0 80)"><rect x="0" y="10" width="390" height="58" fill="white" stroke="black" stroke-width="2" rx="0"/><text x="195" y="40px" fill="black" font-family="Arial, Helvetica, sans-serif" font-size="24px" font-weight="normal" font-style="normal" dominant-baseline="middle" text-anchor="middle" width="390">pluck('v')</text></g><g transform="translate(0 180)"><g><line x1="0" y1="30" x2="390" y2="30" stroke="black" stroke-width="2"/><polyline points="380,22.928932188134524 390,30 380,37.071067811865476" stroke="black" stroke-width="2" fill="none"/></g><g transform="translate(329 0) translate(0 0)"><line x1="0" y1="5" x2="0" y2="55" stroke="black" stroke-width="2"/></g><g transform="translate(210 0) translate(0 0)"><ellipse cx="30" cy="30" rx="29" ry="29" fill="hsl(147.447509765625, 60%, 80%)" stroke="black" stroke-width="2"/><text x="30" y="30" fill="black" font-family="Arial, Helvetica, sans-serif" font-size="18px" font-weight="normal" font-style="normal" dominant-baseline="middle" text-anchor="middle">3</text></g><g transform="translate(120 0) translate(0 0)"><ellipse cx="30" cy="30" rx="29" ry="29" fill="hsl(205.6146240234375, 60%, 80%)" stroke="black" stroke-width="2"/><text x="30" y="30" fill="black" font-family="Arial, Helvetica, sans-serif" font-size="18px" font-weight="normal" font-style="normal" dominant-baseline="middle" text-anchor="middle">2</text></g><g transform="translate(30 0) translate(0 0)"><ellipse cx="30" cy="30" rx="29" ry="29" fill="hsl(35.3924560546875, 60%, 80%)" stroke="black" stroke-width="2"/><text x="30" y="30" fill="black" font-family="Arial, Helvetica, sans-serif" font-size="18px" font-weight="normal" font-style="normal" dominant-baseline="middle" text-anchor="middle">1</text></g></g></g></svg>