<svg xmlns="http://www.w3.org/2000/svg" viewBox="0 0 440 290" width="440" height="290"><path fill="#fff" d="M0 0h440v290H0z"/><g stroke="#000" stroke-width="2"><path d="M25 55h390"/><path fill="none" stroke-linecap="square" d="M405 49.226L415 55l-10 5.774"/></g><path stroke="#000" stroke-width="2" d="M354 30v50"/><g transform="translate(235 25)"><circle cx="30" cy="30" fill="hsl(335, 60%, 80%)" stroke="#000" stroke-width="2" r="29"/><text font-family="Arial, Helvetica, sans-serif" font-size="18" dominant-baseline="middle" text-anchor="middle" transform="translate(30 30)">{v:3}</text></g><g transform="translate(145 25)"><circle cx="30" cy="30" fill="hsl(119, 60%, 80%)" stroke="#000" stroke-width="2" r="29"/><text font-family="Arial, Helvetica, sans-serif" font-size="18" dominant-baseline="middle" text-anchor="middle" transform="translate(30 30)">{v:2}</text></g><g transform="translate(55 25)"><circle cx="30" cy="30" fill="hsl(185, 60%, 80%)" stroke="#000" stroke-width="2" r="29"/><text font-family="Arial, Helvetica, sans-serif" font-size="18" dominant-baseline="middle" text-anchor="middle" transform="translate(30 30)">{v:1}</text></g><g transform="translate(25 105)"><rect y="10" width="390" height="58" fill="#fff" stroke="#000" stroke-width="2" rx="0"/><text x="195" y="40" font-family="Arial, Helvetica, sans-serif" font-size="24" dominant-baseline="middle" text-anchor="middle">pluck(&apos;v&apos;)</text></g><g><g stroke="#000" stroke-width="2"><path d="M25 235h390"/><path fill="none" stroke-linecap="square" d="M405 229.226L415 235l-10 5.774"/></g><path stroke="#000" stroke-width="2" d="M354 210v50"/><g transform="translate(235 205)"><circle cx="30" cy="30" fill="hsl(147, 60%, 80%)" stroke="#000" stroke-width="2" r="29"/><text font-family="Arial, Helvetica, sans-serif" font-size="18" dominant-baseline="middle" text-anchor="middle" transform="translate(30 30)">3</text></g><g transform="translate(145 205)"><circle cx="30" cy="30" fill="hsl(206, 60%, 80%)" stroke="#000" stroke-width="2" r="29"/><text font-family="Arial, Helvetica, sans-serif" font-size="18" dominant-baseline="middle" text-anchor="middle" transform="translate(30 30)">2</text></g><g transform="translate(55 205)"><circle cx="30" cy="30" fill="hsl(35, 60%, 80%)" stroke="#000" stroke-width="2" r="29"/><text font-family="Arial, Helvetica, sans-serif" font-size="18" dominant-baseline="middle" text-anchor="middle" transform="translate(30 30)">1</text></g></g></svg>