<svg xmlns="http://www.w3.org/2000/svg" viewBox="0 0 510 280" width="510" height="280"><rect x="0" y="0" fill="white" width="510" height="280"/><g transform="translate(20 20)"><g transform="translate(0 0)"><text x="0" y="30" fill="black" font-family="sans-serif" font-size="18px" font-weight="bold" font-style="normal" dominant-baseline="middle">input</text><g transform="translate(100 0)"><g><line x1="0" y1="30" x2="370" y2="30" stroke="black" stroke-width="2"/><polyline points="360,22.928932188134524 370,30 360,37.071067811865476" stroke="black" stroke-width="2" fill="none"/></g><g transform="translate(30 0)"><ellipse cx="30" cy="30" rx="29" ry="29" fill="hsl(184.94384765625, 60%, 80%)" stroke="black" stroke-width="2"/><text x="30" y="30" fill="black" font-family="sans-serif" font-size="18px" font-weight="bold" font-style="normal" dominant-baseline="middle" text-anchor="middle">{v:1}</text></g><g transform="translate(120 0)"><ellipse cx="30" cy="30" rx="29" ry="29" fill="hsl(119.3609619140625, 60%, 80%)" stroke="black" stroke-width="2"/><text x="30" y="30" fill="black" font-family="sans-serif" font-size="18px" font-weight="bold" font-style="normal" dominant-baseline="middle" text-anchor="middle">{v:2}</text></g><g transform="translate(210 0)"><ellipse cx="30" cy="30" rx="29" ry="29" fill="hsl(335.0006103515625, 60%, 80%)" stroke="black" stroke-width="2"/><text x="30" y="30" fill="black" font-family="sans-serif" font-size="18px" font-weight="bold" font-style="normal" dominant-baseline="middle" text-anchor="middle">{v:3}</text></g><g transform="translate(329 0)"><line x1="0" y1="20" x2="0" y2="40" stroke="black" stroke-width="2"/></g></g></g><g transform="translate(0 80)"><rect x="0" y="10" width="470" height="58" fill="white" stroke="black" stroke-width="2" rx="10"/><text x="235" y="40px" fill="black" font-family="sans-serif" font-size="18px" font-weight="bold" font-style="normal" dominant-baseline="middle" text-anchor="middle" width="470">pluck('v')</text></g><g transform="translate(0 180)"><text x="0" y="30" fill="black" font-family="sans-serif" font-size="18px" font-weight="bold" font-style="normal" dominant-baseline="middle">output</text><g transform="translate(100 0)"><g><line x1="0" y1="30" x2="370" y2="30" stroke="black" stroke-width="2"/><polyline points="360,22.928932188134524 370,30 360,37.071067811865476" stroke="black" stroke-width="2" fill="none"/></g><g transform="translate(30 0)"><ellipse cx="30" cy="30" rx="29" ry="29" fill="hsl(35.3924560546875, 60%, 80%)" stroke="black" stroke-width="2"/><text x="30" y="30" fill="black" font-family="sans-serif" font-size="18px" font-weight="bold" font-style="normal" dominant-baseline="middle" text-anchor="middle">1</text></g><g transform="translate(120 0)"><ellipse cx="30" cy="30" rx="29" ry="29" fill="hsl(205.6146240234375, 60%, 80%)" stroke="black" stroke-width="2"/><text x="30" y="30" fill="black" font-family="sans-serif" font-size="18px" font-weight="bold" font-style="normal" dominant-baseline="middle" text-anchor="middle">2</text></g><g transform="translate(210 0)"><ellipse cx="30" cy="30" rx="29" ry="29" fill="hsl(147.447509765625, 60%, 80%)" stroke="black" stroke-width="2"/><text x="30" y="30" fill="black" font-family="sans-serif" font-size="18px" font-weight="bold" font-style="normal" dominant-baseline="middle" text-anchor="middle">3</text></g><g transform="translate(329 0)"><line x1="0" y1="20" x2="0" y2="40" stroke="black" stroke-width="2"/></g></g></g></g></svg>