<svg xmlns="http://www.w3.org/2000/svg" viewBox="0 0 670 330" width="670" height="330"><rect x="0" y="0" fill="white" width="670" height="330"/><g transform="translate(25 25)"><g><g><line x1="0" y1="25" x2="620" y2="25" stroke="black" stroke-width="2"/><polyline points="610,17.928932188134524 620,25 610,32.071067811865476" stroke="black" stroke-width="2" fill="none"/></g><g transform="translate(569 0)"><line x1="0" y1="0" x2="0" y2="50" stroke="black" stroke-width="2"/></g><g transform="translate(400 0)"><ellipse cx="20" cy="25" rx="19" ry="19" fill="hsl(252.61962890625, 60%, 80%)" stroke="black" stroke-width="2"/><text x="0" y="0" fill="black" font-family="Arial, Helvetica, sans-serif" font-size="18px" font-weight="normal" font-style="normal" dominant-baseline="middle" text-anchor="middle" transform="translate(20 25)">e</text></g><g transform="translate(310 0)"><ellipse cx="20" cy="25" rx="19" ry="19" fill="hsl(79.046630859375, 60%, 80%)" stroke="black" stroke-width="2"/><text x="0" y="0" fill="black" font-family="Arial, Helvetica, sans-serif" font-size="18px" font-weight="normal" font-style="normal" dominant-baseline="middle" text-anchor="middle" transform="translate(20 25)">d</text></g><g transform="translate(220 0)"><ellipse cx="20" cy="25" rx="19" ry="19" fill="hsl(31.66259765625, 60%, 80%)" stroke="black" stroke-width="2"/><text x="0" y="0" fill="black" font-family="Arial, Helvetica, sans-serif" font-size="18px" font-weight="normal" font-style="normal" dominant-baseline="middle" text-anchor="middle" transform="translate(20 25)">c</text></g><g transform="translate(130 0)"><ellipse cx="20" cy="25" rx="19" ry="19" fill="hsl(44.110107421875, 60%, 80%)" stroke="black" stroke-width="2"/><text x="0" y="0" fill="black" font-family="Arial, Helvetica, sans-serif" font-size="18px" font-weight="normal" font-style="normal" dominant-baseline="middle" text-anchor="middle" transform="translate(20 25)">b</text></g><g transform="translate(40 0)"><ellipse cx="20" cy="25" rx="19" ry="19" fill="hsl(320.9271240234375, 60%, 80%)" stroke="black" stroke-width="2"/><text x="0" y="0" fill="black" font-family="Arial, Helvetica, sans-serif" font-size="18px" font-weight="normal" font-style="normal" dominant-baseline="middle" text-anchor="middle" transform="translate(20 25)">a</text></g></g><g transform="translate(0 70)"><g><line x1="0" y1="25" x2="530" y2="25" stroke="black" stroke-width="2"/><polyline points="520,17.928932188134524 530,25 520,32.071067811865476" stroke="black" stroke-width="2" fill="none"/></g><g transform="translate(479 0)"><line x1="0" y1="0" x2="0" y2="50" stroke="black" stroke-width="2"/></g><g transform="translate(250 0)"><ellipse cx="20" cy="25" rx="19" ry="19" fill="hsl(244.061279296875, 60%, 80%)" stroke="black" stroke-width="2"/><text x="0" y="0" fill="black" font-family="Arial, Helvetica, sans-serif" font-size="18px" font-weight="normal" font-style="normal" dominant-baseline="middle" text-anchor="middle" transform="translate(20 25)">x</text></g></g><g transform="translate(0 140)"><rect x="0" y="10" width="620" height="48" fill="white" stroke="black" stroke-width="2" rx="0"/><text x="310" y="35px" fill="black" font-family="Arial, Helvetica, sans-serif" font-size="24px" font-weight="normal" font-style="normal" dominant-baseline="middle" text-anchor="middle" width="620">skipUntil</text></g><g transform="translate(0 230)"><g><line x1="0" y1="25" x2="620" y2="25" stroke="black" stroke-width="2"/><polyline points="610,17.928932188134524 620,25 610,32.071067811865476" stroke="black" stroke-width="2" fill="none"/></g><g transform="translate(569 0)"><line x1="0" y1="0" x2="0" y2="50" stroke="black" stroke-width="2"/></g><g transform="translate(400 0)"><ellipse cx="20" cy="25" rx="19" ry="19" fill="hsl(252.61962890625, 60%, 80%)" stroke="black" stroke-width="2"/><text x="0" y="0" fill="black" font-family="Arial, Helvetica, sans-serif" font-size="18px" font-weight="normal" font-style="normal" dominant-baseline="middle" text-anchor="middle" transform="translate(20 25)">e</text></g><g transform="translate(310 0)"><ellipse cx="20" cy="25" rx="19" ry="19" fill="hsl(79.046630859375, 60%, 80%)" stroke="black" stroke-width="2"/><text x="0" y="0" fill="black" font-family="Arial, Helvetica, sans-serif" font-size="18px" font-weight="normal" font-style="normal" dominant-baseline="middle" text-anchor="middle" transform="translate(20 25)">d</text></g></g></g></svg>