<svg xmlns="http://www.w3.org/2000/svg" viewBox="0 0 699.3334678158122 330" width="699.3334678158122" height="330"><rect x="0" y="0" fill="white" width="699.3334678158122" height="330"/><g transform="translate(25 25)"><g transform="translate(0 0)"><g><line x1="0" y1="25" x2="649.3334678158122" y2="25" stroke="black" stroke-width="2"/><polyline points="639.3334678158122,17.928932188134524 649.3334678158122,25 639.3334678158122,32.071067811865476" stroke="black" stroke-width="2" fill="none"/></g><g transform="translate(598.3334678158122 0) translate(0 0)"><line x1="0" y1="0" x2="0" y2="50" stroke="black" stroke-width="2"/></g><g transform="translate(421.61413418007226 0) translate(0 0)"><ellipse cx="20" cy="25" rx="19" ry="19" fill="hsl(252.61962890625, 60%, 80%)" stroke="black" stroke-width="2"/><text x="20" y="25" fill="black" font-family="Arial, Helvetica, sans-serif" font-size="18px" font-weight="normal" font-style="normal" dominant-baseline="middle" text-anchor="middle">e</text></g><g transform="translate(326.9825339986282 0) translate(0 0)"><ellipse cx="20" cy="25" rx="19" ry="19" fill="hsl(79.046630859375, 60%, 80%)" stroke="black" stroke-width="2"/><text x="20" y="25" fill="black" font-family="Arial, Helvetica, sans-serif" font-size="18px" font-weight="normal" font-style="normal" dominant-baseline="middle" text-anchor="middle">d</text></g><g transform="translate(232.3509338171841 0) translate(0 0)"><ellipse cx="20" cy="25" rx="19" ry="19" fill="hsl(31.66259765625, 60%, 80%)" stroke="black" stroke-width="2"/><text x="20" y="25" fill="black" font-family="Arial, Helvetica, sans-serif" font-size="18px" font-weight="normal" font-style="normal" dominant-baseline="middle" text-anchor="middle">c</text></g><g transform="translate(137.71933363574007 0) translate(0 0)"><ellipse cx="20" cy="25" rx="19" ry="19" fill="hsl(44.110107421875, 60%, 80%)" stroke="black" stroke-width="2"/><text x="20" y="25" fill="black" font-family="Arial, Helvetica, sans-serif" font-size="18px" font-weight="normal" font-style="normal" dominant-baseline="middle" text-anchor="middle">b</text></g><g transform="translate(43.08773345429603 0) translate(0 0)"><ellipse cx="20" cy="25" rx="19" ry="19" fill="hsl(320.9271240234375, 60%, 80%)" stroke="black" stroke-width="2"/><text x="20" y="25" fill="black" font-family="Arial, Helvetica, sans-serif" font-size="18px" font-weight="normal" font-style="normal" dominant-baseline="middle" text-anchor="middle">a</text></g></g><g transform="translate(0 70)"><g><line x1="0" y1="25" x2="554.7018676343682" y2="25" stroke="black" stroke-width="2"/><polyline points="544.7018676343682,17.928932188134524 554.7018676343682,25 544.7018676343682,32.071067811865476" stroke="black" stroke-width="2" fill="none"/></g><g transform="translate(503.7018676343682 0) translate(0 0)"><line x1="0" y1="0" x2="0" y2="50" stroke="black" stroke-width="2"/></g><g transform="translate(263.89480054433216 0) translate(0 0)"><ellipse cx="20" cy="25" rx="19" ry="19" fill="hsl(244.061279296875, 60%, 80%)" stroke="black" stroke-width="2"/><text x="20" y="25" fill="black" font-family="Arial, Helvetica, sans-serif" font-size="18px" font-weight="normal" font-style="normal" dominant-baseline="middle" text-anchor="middle">x</text></g></g><g transform="translate(0 140)"><rect x="0" y="10" width="649.3334678158122" height="48" fill="white" stroke="black" stroke-width="2" rx="0"/><text x="324.6667339079061" y="35px" fill="black" font-family="Arial, Helvetica, sans-serif" font-size="24px" font-weight="normal" font-style="normal" dominant-baseline="middle" text-anchor="middle" width="649.3334678158122">skipUntil</text></g><g transform="translate(0 230)"><g><line x1="0" y1="25" x2="649.3334678158122" y2="25" stroke="black" stroke-width="2"/><polyline points="639.3334678158122,17.928932188134524 649.3334678158122,25 639.3334678158122,32.071067811865476" stroke="black" stroke-width="2" fill="none"/></g><g transform="translate(598.3334678158122 0) translate(0 0)"><line x1="0" y1="0" x2="0" y2="50" stroke="black" stroke-width="2"/></g><g transform="translate(421.61413418007226 0) translate(0 0)"><ellipse cx="20" cy="25" rx="19" ry="19" fill="hsl(252.61962890625, 60%, 80%)" stroke="black" stroke-width="2"/><text x="20" y="25" fill="black" font-family="Arial, Helvetica, sans-serif" font-size="18px" font-weight="normal" font-style="normal" dominant-baseline="middle" text-anchor="middle">e</text></g><g transform="translate(326.9825339986282 0) translate(0 0)"><ellipse cx="20" cy="25" rx="19" ry="19" fill="hsl(79.046630859375, 60%, 80%)" stroke="black" stroke-width="2"/><text x="20" y="25" fill="black" font-family="Arial, Helvetica, sans-serif" font-size="18px" font-weight="normal" font-style="normal" dominant-baseline="middle" text-anchor="middle">d</text></g></g></g></svg>