<svg xmlns="http://www.w3.org/2000/svg" width="670" height="330"><path fill="#fff" d="M0 0h670v330H0z"/><g role="list" aria-label="Stream" tabindex="0"><g stroke="#000" stroke-width="2"><path d="M25 50h620"/><path fill="none" stroke-linecap="square" d="M635 44.226L645 50l-10 5.774"/></g><path stroke="#000" stroke-width="2" d="M594 25v50" role="listitem" aria-label="Completion" tabindex="1"/><g role="listitem" aria-label="Message: e" tabindex="2" transform="translate(425 25)"><circle cx="20" cy="25" fill="hsl(253, 60%, 80%)" stroke="#000" stroke-width="2" r="19"/><text font-family="Arial, Helvetica, sans-serif" font-size="18" dominant-baseline="middle" text-anchor="middle" transform="translate(20 25)">e</text></g><g role="listitem" aria-label="Message: d" tabindex="3" transform="translate(335 25)"><circle cx="20" cy="25" fill="hsl(79, 60%, 80%)" stroke="#000" stroke-width="2" r="19"/><text font-family="Arial, Helvetica, sans-serif" font-size="18" dominant-baseline="middle" text-anchor="middle" transform="translate(20 25)">d</text></g><g role="listitem" aria-label="Message: c" tabindex="4" transform="translate(245 25)"><circle cx="20" cy="25" fill="hsl(32, 60%, 80%)" stroke="#000" stroke-width="2" r="19"/><text font-family="Arial, Helvetica, sans-serif" font-size="18" dominant-baseline="middle" text-anchor="middle" transform="translate(20 25)">c</text></g><g role="listitem" aria-label="Message: b" tabindex="5" transform="translate(155 25)"><circle cx="20" cy="25" fill="hsl(44, 60%, 80%)" stroke="#000" stroke-width="2" r="19"/><text font-family="Arial, Helvetica, sans-serif" font-size="18" dominant-baseline="middle" text-anchor="middle" transform="translate(20 25)">b</text></g><g role="listitem" aria-label="Message: a" tabindex="6" transform="translate(65 25)"><circle cx="20" cy="25" fill="hsl(321, 60%, 80%)" stroke="#000" stroke-width="2" r="19"/><text font-family="Arial, Helvetica, sans-serif" font-size="18" dominant-baseline="middle" text-anchor="middle" transform="translate(20 25)">a</text></g></g><g role="list" aria-label="Stream" tabindex="7"><g stroke="#000" stroke-width="2"><path d="M25 120h530"/><path fill="none" stroke-linecap="square" d="M545 114.226L555 120l-10 5.774"/></g><path stroke="#000" stroke-width="2" d="M504 95v50" role="listitem" aria-label="Completion" tabindex="8"/><g role="listitem" aria-label="Message: x" tabindex="9" transform="translate(275 95)"><circle cx="20" cy="25" fill="hsl(244, 60%, 80%)" stroke="#000" stroke-width="2" r="19"/><text font-family="Arial, Helvetica, sans-serif" font-size="18" dominant-baseline="middle" text-anchor="middle" transform="translate(20 25)">x</text></g></g><g aria-label="Operator: skipUntil" tabindex="10" transform="translate(25 165)"><rect y="10" width="620" height="48" fill="#fff" stroke="#000" stroke-width="2" rx="0"/><text x="310" y="35" font-family="Arial, Helvetica, sans-serif" font-size="24" dominant-baseline="middle" text-anchor="middle">skipUntil</text></g><g role="list" aria-label="Stream" tabindex="11"><g stroke="#000" stroke-width="2"><path d="M25 280h620"/><path fill="none" stroke-linecap="square" d="M635 274.226L645 280l-10 5.774"/></g><path stroke="#000" stroke-width="2" d="M594 255v50" role="listitem" aria-label="Completion" tabindex="12"/><g role="listitem" aria-label="Message: e" tabindex="13" transform="translate(425 255)"><circle cx="20" cy="25" fill="hsl(253, 60%, 80%)" stroke="#000" stroke-width="2" r="19"/><text font-family="Arial, Helvetica, sans-serif" font-size="18" dominant-baseline="middle" text-anchor="middle" transform="translate(20 25)">e</text></g><g role="listitem" aria-label="Message: d" tabindex="14" transform="translate(335 255)"><circle cx="20" cy="25" fill="hsl(79, 60%, 80%)" stroke="#000" stroke-width="2" r="19"/><text font-family="Arial, Helvetica, sans-serif" font-size="18" dominant-baseline="middle" text-anchor="middle" transform="translate(20 25)">d</text></g></g></svg>