<svg xmlns="http://www.w3.org/2000/svg" viewBox="0 0 670 330" width="670" height="330"><path fill="#fff" d="M0 0h670v330H0z"/><g stroke="#000" stroke-width="2"><path d="M25 50h620"/><path fill="none" d="M635 42.929L645 50l-10 7.071"/></g><path stroke="#000" stroke-width="2" d="M594 25v50"/><g transform="translate(425 25)"><circle cx="20" cy="25" fill="hsl(252.61962890625, 60%, 80%)" stroke="#000" stroke-width="2" r="19"/><text font-family="Arial, Helvetica, sans-serif" font-size="18" dominant-baseline="middle" text-anchor="middle" transform="translate(20 25)">e</text></g><g transform="translate(335 25)"><circle cx="20" cy="25" fill="hsl(79.046630859375, 60%, 80%)" stroke="#000" stroke-width="2" r="19"/><text font-family="Arial, Helvetica, sans-serif" font-size="18" dominant-baseline="middle" text-anchor="middle" transform="translate(20 25)">d</text></g><g transform="translate(245 25)"><circle cx="20" cy="25" fill="hsl(31.66259765625, 60%, 80%)" stroke="#000" stroke-width="2" r="19"/><text font-family="Arial, Helvetica, sans-serif" font-size="18" dominant-baseline="middle" text-anchor="middle" transform="translate(20 25)">c</text></g><g transform="translate(155 25)"><circle cx="20" cy="25" fill="hsl(44.110107421875, 60%, 80%)" stroke="#000" stroke-width="2" r="19"/><text font-family="Arial, Helvetica, sans-serif" font-size="18" dominant-baseline="middle" text-anchor="middle" transform="translate(20 25)">b</text></g><g transform="translate(65 25)"><circle cx="20" cy="25" fill="hsl(320.9271240234375, 60%, 80%)" stroke="#000" stroke-width="2" r="19"/><text font-family="Arial, Helvetica, sans-serif" font-size="18" dominant-baseline="middle" text-anchor="middle" transform="translate(20 25)">a</text></g><g><g stroke="#000" stroke-width="2"><path d="M25 120h530"/><path fill="none" d="M545 112.929L555 120l-10 7.071"/></g><path stroke="#000" stroke-width="2" d="M504 95v50"/><g transform="translate(275 95)"><circle cx="20" cy="25" fill="hsl(244.061279296875, 60%, 80%)" stroke="#000" stroke-width="2" r="19"/><text font-family="Arial, Helvetica, sans-serif" font-size="18" dominant-baseline="middle" text-anchor="middle" transform="translate(20 25)">x</text></g></g><g transform="translate(25 165)"><rect y="10" width="620" height="48" fill="#fff" stroke="#000" stroke-width="2" rx="0"/><text x="310" y="35" font-family="Arial, Helvetica, sans-serif" font-size="24" dominant-baseline="middle" text-anchor="middle">skipUntil</text></g><g><g stroke="#000" stroke-width="2"><path d="M25 280h620"/><path fill="none" d="M635 272.929L645 280l-10 7.071"/></g><path stroke="#000" stroke-width="2" d="M594 255v50"/><g transform="translate(425 255)"><circle cx="20" cy="25" fill="hsl(252.61962890625, 60%, 80%)" stroke="#000" stroke-width="2" r="19"/><text font-family="Arial, Helvetica, sans-serif" font-size="18" dominant-baseline="middle" text-anchor="middle" transform="translate(20 25)">e</text></g><g transform="translate(335 255)"><circle cx="20" cy="25" fill="hsl(79.046630859375, 60%, 80%)" stroke="#000" stroke-width="2" r="19"/><text font-family="Arial, Helvetica, sans-serif" font-size="18" dominant-baseline="middle" text-anchor="middle" transform="translate(20 25)">d</text></g></g></svg>