<svg xmlns="http://www.w3.org/2000/svg" width="822.309" height="362.669" viewBox="0 0 822.309 362.669"><path fill="#fff" d="M0 0h822.309v362.669H0z"/><g stroke="#000" stroke-width="2"><path d="M25 50h500"/><path fill="none" stroke-linecap="square" d="M515 44.226 525 50l-10 5.774"/></g><path stroke="#000" stroke-width="2" d="M474 25v50"/><g stroke="#000" stroke-width="2"><path d="m205 50 167.552 54.441"/><path fill="none" stroke-linecap="square" d="m364.826 95.86 7.727 8.581-11.295 2.401"/></g><g transform="rotate(18 -29.51 1019.842)"><circle cx="20" cy="25" r="19" fill="hsl(206, 60%, 80%)" stroke="#000" stroke-width="2"/><text dominant-baseline="middle" font-family="Arial, Helvetica, sans-serif" font-size="18" text-anchor="middle" transform="translate(20 25)">2</text></g><g transform="rotate(18 2.034 820.682)"><circle cx="20" cy="25" r="19" fill="hsl(35, 60%, 80%)" stroke="#000" stroke-width="2"/><text dominant-baseline="middle" font-family="Arial, Helvetica, sans-serif" font-size="18" text-anchor="middle" transform="translate(20 25)">1</text></g><g stroke="#000" stroke-width="2"><path d="m55 50 317.553 103.18"/><path fill="none" stroke-linecap="square" d="m364.826 144.598 7.727 8.581-11.295 2.4"/></g><path stroke="#000" stroke-width="2" d="m331.774 113.643-15.45 47.553"/><g transform="rotate(18 -151.825 845.051)"><circle cx="20" cy="25" r="19" fill="hsl(44, 60%, 80%)" stroke="#000" stroke-width="2"/><text dominant-baseline="middle" font-family="Arial, Helvetica, sans-serif" font-size="18" text-anchor="middle" transform="translate(20 25)">b</text></g><g transform="rotate(18 -57.194 247.57)"><circle cx="20" cy="25" r="19" fill="hsl(321, 60%, 80%)" stroke="#000" stroke-width="2"/><text dominant-baseline="middle" font-family="Arial, Helvetica, sans-serif" font-size="18" text-anchor="middle" transform="translate(20 25)">a</text></g><g transform="translate(25 197.67)"><rect width="770.309" height="48" x="1" y="11" fill="#fff" stroke="#000" stroke-width="2" rx="0"/><text x="386.155" y="35" dominant-baseline="middle" font-family="Arial, Helvetica, sans-serif" font-size="24" text-anchor="middle">zipAll</text></g><g stroke="#000" stroke-width="2"><path d="M25 312.67h770"/><path fill="none" stroke-linecap="square" d="m785 306.896 10 5.773-10 5.774"/></g><path stroke="#000" stroke-width="2" d="M744 287.67v50"/><g transform="translate(665 287.67)"><circle cx="20" cy="25" r="19" fill="hsl(201, 60%, 80%)" stroke="#000" stroke-width="2"/><text dominant-baseline="middle" font-family="Arial, Helvetica, sans-serif" font-size="18" text-anchor="middle" transform="translate(20 25)">b2</text></g><g transform="translate(515 287.67)"><circle cx="20" cy="25" r="19" fill="hsl(283, 60%, 80%)" stroke="#000" stroke-width="2"/><text dominant-baseline="middle" font-family="Arial, Helvetica, sans-serif" font-size="18" text-anchor="middle" transform="translate(20 25)">a1</text></g></svg>