<svg xmlns="http://www.w3.org/2000/svg" viewBox="0 0 820 361.956" width="820" height="361.956"><path fill="#fff" d="M0 0h820v361.956H0z"/><g stroke="#000" stroke-width="2"><path d="M25 50h500"/><path fill="none" d="M515 42.929L525 50l-10 7.071"/></g><path stroke="#000" stroke-width="2" d="M474 25v50"/><g stroke="#000" stroke-width="2"><path d="M205 50l167.552 54.441"/><path fill="none" d="M365.227 94.626l7.326 9.815-11.696 3.635"/></g><g transform="rotate(18 -29.51 1019.842)"><circle cx="20" cy="25" fill="hsl(205.6146240234375, 60%, 80%)" stroke="#000" stroke-width="2" r="19"/><text font-family="Arial, Helvetica, sans-serif" font-size="18" dominant-baseline="middle" text-anchor="middle" transform="translate(20 25)">2</text></g><g transform="rotate(18 2.034 820.682)"><circle cx="20" cy="25" fill="hsl(35.3924560546875, 60%, 80%)" stroke="#000" stroke-width="2" r="19"/><text font-family="Arial, Helvetica, sans-serif" font-size="18" dominant-baseline="middle" text-anchor="middle" transform="translate(20 25)">1</text></g><g><g stroke="#000" stroke-width="2"><path d="M55 50l317.553 103.18"/><path fill="none" d="M365.227 143.364l7.326 9.815-11.696 3.635"/></g><path stroke="#000" stroke-width="2" d="M331.774 113.643l-15.45 47.553"/><g transform="rotate(18 -151.825 845.051)"><circle cx="20" cy="25" fill="hsl(44.110107421875, 60%, 80%)" stroke="#000" stroke-width="2" r="19"/><text font-family="Arial, Helvetica, sans-serif" font-size="18" dominant-baseline="middle" text-anchor="middle" transform="translate(20 25)">b</text></g><g transform="rotate(18 -57.194 247.57)"><circle cx="20" cy="25" fill="hsl(320.9271240234375, 60%, 80%)" stroke="#000" stroke-width="2" r="19"/><text font-family="Arial, Helvetica, sans-serif" font-size="18" dominant-baseline="middle" text-anchor="middle" transform="translate(20 25)">a</text></g></g><g transform="translate(25 196.956)"><rect y="10" width="770" height="48" fill="#fff" stroke="#000" stroke-width="2" rx="0"/><text x="385" y="35" font-family="Arial, Helvetica, sans-serif" font-size="24" dominant-baseline="middle" text-anchor="middle">zipAll</text></g><g><g stroke="#000" stroke-width="2"><path d="M25 311.956h770"/><path fill="none" d="M785 304.885l10 7.07-10 7.072"/></g><path stroke="#000" stroke-width="2" d="M744 286.956v50"/><g transform="translate(665 286.956)"><circle cx="20" cy="25" fill="hsl(200.56640625, 60%, 80%)" stroke="#000" stroke-width="2" r="19"/><text font-family="Arial, Helvetica, sans-serif" font-size="18" dominant-baseline="middle" text-anchor="middle" transform="translate(20 25)">b2</text></g><g transform="translate(515 286.956)"><circle cx="20" cy="25" fill="hsl(282.8045654296875, 60%, 80%)" stroke="#000" stroke-width="2" r="19"/><text font-family="Arial, Helvetica, sans-serif" font-size="18" dominant-baseline="middle" text-anchor="middle" transform="translate(20 25)">a1</text></g></g></svg>