<svg xmlns="http://www.w3.org/2000/svg" viewBox="0 0 820 361.9555806090109" width="820" height="361.9555806090109"><rect x="0" y="0" fill="white" width="820" height="361.9555806090109"/><g transform="translate(25 25)"><g><g><line x1="0" y1="25" x2="500" y2="25" stroke="black" stroke-width="2"/><polyline points="490,17.928932188134524 500,25 490,32.071067811865476" stroke="black" stroke-width="2" fill="none"/></g><g transform="translate(449 0)"><line x1="0" y1="0" x2="0" y2="50" stroke="black" stroke-width="2"/></g><g transform="rotate(18 180 25) translate(180 0)"><g><line x1="0" y1="25" x2="176.17546690859206" y2="25" stroke="black" stroke-width="2"/><polyline points="166.17546690859206,17.928932188134524 176.17546690859206,25 166.17546690859206,32.071067811865476" stroke="black" stroke-width="2" fill="none"/></g><g transform="translate(106.17546690859206 0)"><ellipse cx="20" cy="25" rx="19" ry="19" fill="hsl(205.6146240234375, 60%, 80%)" stroke="black" stroke-width="2"/><text x="0" y="0" fill="black" font-family="Arial, Helvetica, sans-serif" font-size="18px" font-weight="normal" font-style="normal" dominant-baseline="middle" text-anchor="middle" transform="translate(20 25)">2</text></g><g transform="translate(43.08773345429603 0)"><ellipse cx="20" cy="25" rx="19" ry="19" fill="hsl(35.3924560546875, 60%, 80%)" stroke="black" stroke-width="2"/><text x="0" y="0" fill="black" font-family="Arial, Helvetica, sans-serif" font-size="18px" font-weight="normal" font-style="normal" dominant-baseline="middle" text-anchor="middle" transform="translate(20 25)">1</text></g></g><g transform="rotate(18 30 25) translate(30 0)"><g><line x1="0" y1="25" x2="333.89480054433216" y2="25" stroke="black" stroke-width="2"/><polyline points="323.89480054433216,17.928932188134524 333.89480054433216,25 323.89480054433216,32.071067811865476" stroke="black" stroke-width="2" fill="none"/></g><g transform="translate(282.89480054433216 0)"><line x1="0" y1="0" x2="0" y2="50" stroke="black" stroke-width="2"/></g><g transform="translate(200.80706709003613 0)"><ellipse cx="20" cy="25" rx="19" ry="19" fill="hsl(44.110107421875, 60%, 80%)" stroke="black" stroke-width="2"/><text x="0" y="0" fill="black" font-family="Arial, Helvetica, sans-serif" font-size="18px" font-weight="normal" font-style="normal" dominant-baseline="middle" text-anchor="middle" transform="translate(20 25)">b</text></g><g transform="translate(11.543866727148014 0)"><ellipse cx="20" cy="25" rx="19" ry="19" fill="hsl(320.9271240234375, 60%, 80%)" stroke="black" stroke-width="2"/><text x="0" y="0" fill="black" font-family="Arial, Helvetica, sans-serif" font-size="18px" font-weight="normal" font-style="normal" dominant-baseline="middle" text-anchor="middle" transform="translate(20 25)">a</text></g></g></g><g transform="translate(0 171.9555806090109)"><rect x="0" y="10" width="770" height="48" fill="white" stroke="black" stroke-width="2" rx="0"/><text x="385" y="35px" fill="black" font-family="Arial, Helvetica, sans-serif" font-size="24px" font-weight="normal" font-style="normal" dominant-baseline="middle" text-anchor="middle" width="770">zipAll</text></g><g transform="translate(0 261.9555806090109)"><g><line x1="0" y1="25" x2="770" y2="25" stroke="black" stroke-width="2"/><polyline points="760,17.928932188134524 770,25 760,32.071067811865476" stroke="black" stroke-width="2" fill="none"/></g><g transform="translate(719 0)"><line x1="0" y1="0" x2="0" y2="50" stroke="black" stroke-width="2"/></g><g transform="translate(640 0)"><ellipse cx="20" cy="25" rx="19" ry="19" fill="hsl(200.56640625, 60%, 80%)" stroke="black" stroke-width="2"/><text x="0" y="0" fill="black" font-family="Arial, Helvetica, sans-serif" font-size="18px" font-weight="normal" font-style="normal" dominant-baseline="middle" text-anchor="middle" transform="translate(20 25)">b2</text></g><g transform="translate(490 0)"><ellipse cx="20" cy="25" rx="19" ry="19" fill="hsl(282.8045654296875, 60%, 80%)" stroke="black" stroke-width="2"/><text x="0" y="0" fill="black" font-family="Arial, Helvetica, sans-serif" font-size="18px" font-weight="normal" font-style="normal" dominant-baseline="middle" text-anchor="middle" transform="translate(20 25)">a1</text></g></g></g></svg>