<svg xmlns="http://www.w3.org/2000/svg" viewBox="0 0 857.0528014515525 357.661851107362" width="857.0528014515525" height="357.661851107362"><rect x="0" y="0" fill="white" width="857.0528014515525" height="357.661851107362"/><g transform="translate(25 25)"><g transform="translate(0 0)"><g><line x1="0" y1="25" x2="523.1580009072202" y2="25" stroke="black" stroke-width="2"/><polyline points="513.1580009072202,17.928932188134524 523.1580009072202,25 513.1580009072202,32.071067811865476" stroke="black" stroke-width="2" fill="none"/></g><g transform="translate(472.1580009072202 0) translate(0 0)"><line x1="0" y1="0" x2="0" y2="50" stroke="black" stroke-width="2"/></g><g transform="rotate(18 189.2632003628881 25) translate(189.2632003628881 0) translate(0 0)"><g><line x1="0" y1="25" x2="170" y2="25" stroke="black" stroke-width="2"/><polyline points="160,17.928932188134524 170,25 160,32.071067811865476" stroke="black" stroke-width="2" fill="none"/></g><g transform="translate(100 0) translate(0 0)"><ellipse cx="20" cy="25" rx="19" ry="19" fill="hsl(205.6146240234375, 60%, 80%)" stroke="black" stroke-width="2"/><text x="20" y="25" fill="black" font-family="Arial, Helvetica, sans-serif" font-size="18px" font-weight="normal" font-style="normal" dominant-baseline="middle" text-anchor="middle">2</text></g><g transform="translate(40 0) translate(0 0)"><ellipse cx="20" cy="25" rx="19" ry="19" fill="hsl(35.3924560546875, 60%, 80%)" stroke="black" stroke-width="2"/><text x="20" y="25" fill="black" font-family="Arial, Helvetica, sans-serif" font-size="18px" font-weight="normal" font-style="normal" dominant-baseline="middle" text-anchor="middle">1</text></g></g><g transform="rotate(18 31.543866727148014 25) translate(31.543866727148014 0) translate(0 0)"><g><line x1="0" y1="25" x2="320" y2="25" stroke="black" stroke-width="2"/><polyline points="310,17.928932188134524 320,25 310,32.071067811865476" stroke="black" stroke-width="2" fill="none"/></g><g transform="translate(269 0) translate(0 0)"><line x1="0" y1="0" x2="0" y2="50" stroke="black" stroke-width="2"/></g><g transform="translate(190 0) translate(0 0)"><ellipse cx="20" cy="25" rx="19" ry="19" fill="hsl(44.110107421875, 60%, 80%)" stroke="black" stroke-width="2"/><text x="20" y="25" fill="black" font-family="Arial, Helvetica, sans-serif" font-size="18px" font-weight="normal" font-style="normal" dominant-baseline="middle" text-anchor="middle">b</text></g><g transform="translate(10 0) translate(0 0)"><ellipse cx="20" cy="25" rx="19" ry="19" fill="hsl(320.9271240234375, 60%, 80%)" stroke="black" stroke-width="2"/><text x="20" y="25" fill="black" font-family="Arial, Helvetica, sans-serif" font-size="18px" font-weight="normal" font-style="normal" dominant-baseline="middle" text-anchor="middle">a</text></g></g></g><g transform="translate(0 167.661851107362)"><rect x="0" y="10" width="807.0528014515525" height="48" fill="white" stroke="black" stroke-width="2" rx="0"/><text x="403.5264007257762" y="35px" fill="black" font-family="Arial, Helvetica, sans-serif" font-size="24px" font-weight="normal" font-style="normal" dominant-baseline="middle" text-anchor="middle" width="807.0528014515525">zipAll</text></g><g transform="translate(0 257.661851107362)"><g><line x1="0" y1="25" x2="807.0528014515525" y2="25" stroke="black" stroke-width="2"/><polyline points="797.0528014515525,17.928932188134524 807.0528014515525,25 797.0528014515525,32.071067811865476" stroke="black" stroke-width="2" fill="none"/></g><g transform="translate(756.0528014515525 0) translate(0 0)"><line x1="0" y1="0" x2="0" y2="50" stroke="black" stroke-width="2"/></g><g transform="translate(673.9650679972564 0) translate(0 0)"><ellipse cx="20" cy="25" rx="19" ry="19" fill="hsl(200.56640625, 60%, 80%)" stroke="black" stroke-width="2"/><text x="20" y="25" fill="black" font-family="Arial, Helvetica, sans-serif" font-size="18px" font-weight="normal" font-style="normal" dominant-baseline="middle" text-anchor="middle">b2</text></g><g transform="translate(516.2457343615163 0) translate(0 0)"><ellipse cx="20" cy="25" rx="19" ry="19" fill="hsl(282.8045654296875, 60%, 80%)" stroke="black" stroke-width="2"/><text x="20" y="25" fill="black" font-family="Arial, Helvetica, sans-serif" font-size="18px" font-weight="normal" font-style="normal" dominant-baseline="middle" text-anchor="middle">a1</text></g></g></g></svg>