<svg xmlns="http://www.w3.org/2000/svg" width="820" height="361.956"><path fill="#fff" d="M0 0h820v361.956H0z"/><g role="list" aria-label="Stream" tabindex="0"><g stroke="#000" stroke-width="2"><path d="M25 50h500"/><path fill="none" stroke-linecap="square" d="M515 44.226L525 50l-10 5.774"/></g><path stroke="#000" stroke-width="2" d="M474 25v50" role="listitem" aria-label="Completion" tabindex="1"/><g role="list" aria-label="Stream" tabindex="2"><g stroke="#000" stroke-width="2"><path d="M205 50l167.552 54.441"/><path fill="none" stroke-linecap="square" d="M364.826 95.86l7.727 8.581-11.295 2.401"/></g><g role="listitem" aria-label="Message: 2" tabindex="3" transform="rotate(18 -29.51 1019.842)"><circle cx="20" cy="25" fill="hsl(206, 60%, 80%)" stroke="#000" stroke-width="2" r="19"/><text font-family="Arial, Helvetica, sans-serif" font-size="18" dominant-baseline="middle" text-anchor="middle" transform="translate(20 25)">2</text></g><g role="listitem" aria-label="Message: 1" tabindex="4" transform="rotate(18 2.034 820.682)"><circle cx="20" cy="25" fill="hsl(35, 60%, 80%)" stroke="#000" stroke-width="2" r="19"/><text font-family="Arial, Helvetica, sans-serif" font-size="18" dominant-baseline="middle" text-anchor="middle" transform="translate(20 25)">1</text></g></g><g role="list" aria-label="Stream" tabindex="5"><g stroke="#000" stroke-width="2"><path d="M55 50l317.553 103.18"/><path fill="none" stroke-linecap="square" d="M364.826 144.598l7.727 8.581-11.295 2.4"/></g><path stroke="#000" stroke-width="2" d="M331.774 113.643l-15.45 47.553" role="listitem" aria-label="Completion" tabindex="6"/><g role="listitem" aria-label="Message: b" tabindex="7" transform="rotate(18 -151.825 845.051)"><circle cx="20" cy="25" fill="hsl(44, 60%, 80%)" stroke="#000" stroke-width="2" r="19"/><text font-family="Arial, Helvetica, sans-serif" font-size="18" dominant-baseline="middle" text-anchor="middle" transform="translate(20 25)">b</text></g><g role="listitem" aria-label="Message: a" tabindex="8" transform="rotate(18 -57.194 247.57)"><circle cx="20" cy="25" fill="hsl(321, 60%, 80%)" stroke="#000" stroke-width="2" r="19"/><text font-family="Arial, Helvetica, sans-serif" font-size="18" dominant-baseline="middle" text-anchor="middle" transform="translate(20 25)">a</text></g></g></g><g aria-label="Operator: zipAll" tabindex="9" transform="translate(25 196.956)"><rect y="10" width="770" height="48" fill="#fff" stroke="#000" stroke-width="2" rx="0"/><text x="385" y="35" font-family="Arial, Helvetica, sans-serif" font-size="24" dominant-baseline="middle" text-anchor="middle">zipAll</text></g><g role="list" aria-label="Stream" tabindex="10"><g stroke="#000" stroke-width="2"><path d="M25 311.956h770"/><path fill="none" stroke-linecap="square" d="M785 306.182l10 5.774-10 5.773"/></g><path stroke="#000" stroke-width="2" d="M744 286.956v50" role="listitem" aria-label="Completion" tabindex="11"/><g role="listitem" aria-label="Message: b2" tabindex="12" transform="translate(665 286.956)"><circle cx="20" cy="25" fill="hsl(201, 60%, 80%)" stroke="#000" stroke-width="2" r="19"/><text font-family="Arial, Helvetica, sans-serif" font-size="18" dominant-baseline="middle" text-anchor="middle" transform="translate(20 25)">b2</text></g><g role="listitem" aria-label="Message: a1" tabindex="13" transform="translate(515 286.956)"><circle cx="20" cy="25" fill="hsl(283, 60%, 80%)" stroke="#000" stroke-width="2" r="19"/><text font-family="Arial, Helvetica, sans-serif" font-size="18" dominant-baseline="middle" text-anchor="middle" transform="translate(20 25)">a1</text></g></g></svg>